%TF.GenerationSoftware,KiCad,Pcbnew,10.0.3*%
%TF.CreationDate,2026-06-17T12:40:10+05:30*%
%TF.ProjectId,IOT,494f542e-6b69-4636-9164-5f7063625858,rev?*%
%TF.SameCoordinates,Original*%
%TF.FileFunction,Copper,L1,Top*%
%TF.FilePolarity,Positive*%
%FSLAX46Y46*%
G04 Gerber Fmt 4.6, Leading zero omitted, Abs format (unit mm)*
G04 Created by KiCad (PCBNEW 10.0.3) date 2026-06-17 12:40:10*
%MOMM*%
%LPD*%
G01*
G04 APERTURE LIST*
G04 Aperture macros list*
%AMRoundRect*
0 Rectangle with rounded corners*
0 $1 Rounding radius*
0 $2 $3 $4 $5 $6 $7 $8 $9 X,Y pos of 4 corners*
0 Add a 4 corners polygon primitive as box body*
4,1,4,$2,$3,$4,$5,$6,$7,$8,$9,$2,$3,0*
0 Add four circle primitives for the rounded corners*
1,1,$1+$1,$2,$3*
1,1,$1+$1,$4,$5*
1,1,$1+$1,$6,$7*
1,1,$1+$1,$8,$9*
0 Add four rect primitives between the rounded corners*
20,1,$1+$1,$2,$3,$4,$5,0*
20,1,$1+$1,$4,$5,$6,$7,0*
20,1,$1+$1,$6,$7,$8,$9,0*
20,1,$1+$1,$8,$9,$2,$3,0*%
G04 Aperture macros list end*
%TA.AperFunction,SMDPad,CuDef*%
%ADD10RoundRect,0.250000X0.262500X0.450000X-0.262500X0.450000X-0.262500X-0.450000X0.262500X-0.450000X0*%
%TD*%
%TA.AperFunction,SMDPad,CuDef*%
%ADD11R,1.500000X0.900000*%
%TD*%
%TA.AperFunction,SMDPad,CuDef*%
%ADD12R,0.700000X0.700000*%
%TD*%
%TA.AperFunction,ComponentPad*%
%ADD13C,0.400000*%
%TD*%
%TA.AperFunction,SMDPad,CuDef*%
%ADD14RoundRect,0.250000X0.450000X-0.262500X0.450000X0.262500X-0.450000X0.262500X-0.450000X-0.262500X0*%
%TD*%
%TA.AperFunction,SMDPad,CuDef*%
%ADD15RoundRect,0.150000X0.150000X-0.587500X0.150000X0.587500X-0.150000X0.587500X-0.150000X-0.587500X0*%
%TD*%
%TA.AperFunction,SMDPad,CuDef*%
%ADD16RoundRect,0.250000X0.250000X0.475000X-0.250000X0.475000X-0.250000X-0.475000X0.250000X-0.475000X0*%
%TD*%
%TA.AperFunction,SMDPad,CuDef*%
%ADD17C,1.000000*%
%TD*%
%TA.AperFunction,SMDPad,CuDef*%
%ADD18R,0.950000X2.150000*%
%TD*%
%TA.AperFunction,SMDPad,CuDef*%
%ADD19R,3.250000X2.150000*%
%TD*%
%TA.AperFunction,SMDPad,CuDef*%
%ADD20RoundRect,0.062500X0.350000X0.062500X-0.350000X0.062500X-0.350000X-0.062500X0.350000X-0.062500X0*%
%TD*%
%TA.AperFunction,SMDPad,CuDef*%
%ADD21RoundRect,0.062500X0.062500X0.350000X-0.062500X0.350000X-0.062500X-0.350000X0.062500X-0.350000X0*%
%TD*%
%TA.AperFunction,HeatsinkPad*%
%ADD22R,2.500000X2.500000*%
%TD*%
%TA.AperFunction,ComponentPad*%
%ADD23R,1.700000X1.700000*%
%TD*%
%TA.AperFunction,ComponentPad*%
%ADD24C,1.700000*%
%TD*%
%TA.AperFunction,SMDPad,CuDef*%
%ADD25R,1.800000X1.230000*%
%TD*%
%TA.AperFunction,SMDPad,CuDef*%
%ADD26RoundRect,0.250000X0.475000X-0.250000X0.475000X0.250000X-0.475000X0.250000X-0.475000X-0.250000X0*%
%TD*%
%TA.AperFunction,SMDPad,CuDef*%
%ADD27R,1.200000X1.200000*%
%TD*%
%TA.AperFunction,SMDPad,CuDef*%
%ADD28RoundRect,0.250000X-0.250000X-0.475000X0.250000X-0.475000X0.250000X0.475000X-0.250000X0.475000X0*%
%TD*%
%TA.AperFunction,SMDPad,CuDef*%
%ADD29RoundRect,0.250000X-0.262500X-0.450000X0.262500X-0.450000X0.262500X0.450000X-0.262500X0.450000X0*%
%TD*%
%TA.AperFunction,SMDPad,CuDef*%
%ADD30RoundRect,0.150000X-0.150000X0.512500X-0.150000X-0.512500X0.150000X-0.512500X0.150000X0.512500X0*%
%TD*%
%TA.AperFunction,SMDPad,CuDef*%
%ADD31R,0.300000X1.200000*%
%TD*%
%TA.AperFunction,ComponentPad*%
%ADD32C,0.650000*%
%TD*%
%TA.AperFunction,SMDPad,CuDef*%
%ADD33R,0.200000X1.000000*%
%TD*%
%TA.AperFunction,ComponentPad*%
%ADD34O,1.050000X2.100000*%
%TD*%
%TA.AperFunction,SMDPad,CuDef*%
%ADD35RoundRect,0.250000X-0.450000X0.262500X-0.450000X-0.262500X0.450000X-0.262500X0.450000X0.262500X0*%
%TD*%
%TA.AperFunction,SMDPad,CuDef*%
%ADD36R,0.300000X0.300000*%
%TD*%
%TA.AperFunction,SMDPad,CuDef*%
%ADD37R,0.300000X0.900000*%
%TD*%
%TA.AperFunction,SMDPad,CuDef*%
%ADD38R,0.900000X0.300000*%
%TD*%
%TA.AperFunction,SMDPad,CuDef*%
%ADD39R,1.800000X1.800000*%
%TD*%
%TA.AperFunction,SMDPad,CuDef*%
%ADD40RoundRect,0.250000X-0.475000X0.250000X-0.475000X-0.250000X0.475000X-0.250000X0.475000X0.250000X0*%
%TD*%
%TA.AperFunction,SMDPad,CuDef*%
%ADD41RoundRect,0.100000X0.100000X-0.495000X0.100000X0.495000X-0.100000X0.495000X-0.100000X-0.495000X0*%
%TD*%
%TA.AperFunction,SMDPad,CuDef*%
%ADD42R,1.230000X1.800000*%
%TD*%
%TA.AperFunction,SMDPad,CuDef*%
%ADD43R,0.550000X0.570000*%
%TD*%
%TA.AperFunction,SMDPad,CuDef*%
%ADD44RoundRect,0.162500X-0.650000X-0.162500X0.650000X-0.162500X0.650000X0.162500X-0.650000X0.162500X0*%
%TD*%
%TA.AperFunction,SMDPad,CuDef*%
%ADD45RoundRect,0.147500X0.442500X1.257500X-0.442500X1.257500X-0.442500X-1.257500X0.442500X-1.257500X0*%
%TD*%
%TA.AperFunction,SMDPad,CuDef*%
%ADD46R,1.100000X0.800000*%
%TD*%
%TA.AperFunction,SMDPad,CuDef*%
%ADD47R,1.100000X1.000000*%
%TD*%
%TA.AperFunction,SMDPad,CuDef*%
%ADD48R,1.000000X5.500000*%
%TD*%
%TA.AperFunction,SMDPad,CuDef*%
%ADD49R,1.600000X3.000000*%
%TD*%
%TA.AperFunction,SMDPad,CuDef*%
%ADD50R,1.000000X1.500000*%
%TD*%
%TA.AperFunction,SMDPad,CuDef*%
%ADD51R,0.700000X1.500000*%
%TD*%
%TA.AperFunction,SMDPad,CuDef*%
%ADD52R,1.500000X2.800000*%
%TD*%
%TA.AperFunction,SMDPad,CuDef*%
%ADD53R,0.500000X0.350000*%
%TD*%
%TA.AperFunction,ComponentPad*%
%ADD54C,1.208000*%
%TD*%
%TA.AperFunction,ViaPad*%
%ADD55C,0.500000*%
%TD*%
%TA.AperFunction,ViaPad*%
%ADD56C,0.600000*%
%TD*%
%TA.AperFunction,Conductor*%
%ADD57C,0.254000*%
%TD*%
%TA.AperFunction,Conductor*%
%ADD58C,0.300000*%
%TD*%
%TA.AperFunction,Conductor*%
%ADD59C,0.400000*%
%TD*%
%TA.AperFunction,Conductor*%
%ADD60C,0.500000*%
%TD*%
%TA.AperFunction,Conductor*%
%ADD61C,0.800000*%
%TD*%
%TA.AperFunction,Conductor*%
%ADD62C,0.200000*%
%TD*%
%TA.AperFunction,Conductor*%
%ADD63C,0.250000*%
%TD*%
%TA.AperFunction,Conductor*%
%ADD64C,1.000000*%
%TD*%
G04 APERTURE END LIST*
D10*
%TO.P,R26,1*%
%TO.N,Net-(U7-IN+)*%
X174699300Y-73082400D03*
%TO.P,R26,2*%
%TO.N,GND*%
X172874300Y-73082400D03*
%TD*%
D11*
%TO.P,U2,1,3V3_1*%
%TO.N,+3.3V*%
X216640000Y-72400000D03*
%TO.P,U2,2,EN_2*%
%TO.N,/ESP32-C3-02/EN*%
X216640000Y-73900000D03*
%TO.P,U2,3,IO4_3*%
%TO.N,/ESP32-C3-02/SDA*%
X216640000Y-75400000D03*
%TO.P,U2,4,IO5_4*%
%TO.N,/ESP32-C3-02/MIC_OUT*%
X216640000Y-76900000D03*
%TO.P,U2,5,IO6_5*%
%TO.N,Net-(U2-IO6)*%
X216640000Y-78400000D03*
%TO.P,U2,6,IO7_6*%
%TO.N,Net-(U2-IO7)*%
X216640000Y-79900000D03*
%TO.P,U2,7,IO8_7*%
%TO.N,/ESP32-C3-02/GPIO8*%
X216640000Y-81400000D03*
%TO.P,U2,8,IO9_8*%
%TO.N,/ESP32-C3-02/BOOT*%
X216640000Y-82900000D03*
%TO.P,U2,9,GND_9*%
%TO.N,GND*%
X216640000Y-84400000D03*
%TO.P,U2,10,IO10_10*%
%TO.N,/ESP32-C3-02/CS*%
X234140000Y-84400000D03*
%TO.P,U2,11,RXD_11*%
%TO.N,/ESP32-C3-02/TX_RX*%
X234140000Y-82900000D03*
%TO.P,U2,12,TXD_12*%
%TO.N,/ESP32-C3-02/RX_TX*%
X234140000Y-81400000D03*
%TO.P,U2,13,IO18_13*%
%TO.N,/ESP32-C3-02/GPIO18*%
X234140000Y-79900000D03*
%TO.P,U2,14,IO19_14*%
%TO.N,/ESP32-C3-02/GPIO19*%
X234140000Y-78400000D03*
%TO.P,U2,15,IO3_15*%
%TO.N,/ESP32-C3-02/SCL*%
X234140000Y-76900000D03*
%TO.P,U2,16,IO2_16*%
%TO.N,/ESP32-C3-02/MISO_DO*%
X234140000Y-75400000D03*
%TO.P,U2,17,IO1_17*%
%TO.N,/ESP32-C3-02/PHOTO_C*%
X234140000Y-73900000D03*
%TO.P,U2,18,IO0_18*%
%TO.N,/ESP32-C3-02/CS_SD*%
X234140000Y-72400000D03*
D12*
%TO.P,U2,19,GND_19*%
%TO.N,GND*%
X225250000Y-77500000D03*
%TO.P,U2,20,GND_20*%
X226350000Y-77500000D03*
%TO.P,U2,21,GND_21*%
X227450000Y-77500000D03*
%TO.P,U2,22,GND_22*%
X225250000Y-78600000D03*
%TO.P,U2,23,GND_23*%
X226350000Y-78600000D03*
%TO.P,U2,24,GND_24*%
X227450000Y-78600000D03*
%TO.P,U2,25,GND_25*%
X225250000Y-79700000D03*
%TO.P,U2,26,GND_26*%
X226350000Y-79700000D03*
%TO.P,U2,27,GND_27*%
X227450000Y-79700000D03*
D13*
%TO.P,U2,28,GND_28*%
X225800000Y-77500000D03*
%TO.P,U2,29,GND_29*%
X226900000Y-77500000D03*
%TO.P,U2,30,GND_30*%
X225250000Y-78050000D03*
%TO.P,U2,31,GND_31*%
X226350000Y-78050000D03*
%TO.P,U2,32,GND_32*%
X227450000Y-78050000D03*
%TO.P,U2,33,GND_33*%
X225800000Y-78600000D03*
%TO.P,U2,34,GND_34*%
X226900000Y-78600000D03*
%TO.P,U2,35,GND_35*%
X225250000Y-79150000D03*
%TO.P,U2,36,GND_36*%
X226350000Y-79150000D03*
%TO.P,U2,37,GND_37*%
X227450000Y-79150000D03*
%TO.P,U2,38,GND_38*%
X225800000Y-79700000D03*
%TO.P,U2,39,GND_39*%
X226900000Y-79700000D03*
%TD*%
D14*
%TO.P,R8,1*%
%TO.N,/CHARGED*%
X168500000Y-109662500D03*
%TO.P,R8,2*%
%TO.N,Net-(D3-Pad1)*%
X168500000Y-107837500D03*
%TD*%
D15*
%TO.P,Q2,1,B_1*%
%TO.N,Net-(Q2-B)*%
X196857600Y-109068200D03*
%TO.P,Q2,2,E_2*%
%TO.N,/ESP32-C3-02/RTS*%
X198757600Y-109068200D03*
%TO.P,Q2,3,C_3*%
%TO.N,/ESP32-C3-02/EN*%
X197807600Y-107193200D03*
%TD*%
D16*
%TO.P,C21,1*%
%TO.N,Net-(C21-Pad1)*%
X178574300Y-77082400D03*
%TO.P,C21,2*%
%TO.N,GND*%
X176674300Y-77082400D03*
%TD*%
%TO.P,C18,1*%
%TO.N,GND*%
X174774300Y-71082400D03*
%TO.P,C18,2*%
%TO.N,Net-(C18-Pad2)*%
X172874300Y-71082400D03*
%TD*%
D17*
%TO.P,TEST_CLK1,1,1_1*%
%TO.N,/ESP32-C3-02/SCLK*%
X212250000Y-84000000D03*
%TD*%
D18*
%TO.P,VR1,1,GND_1*%
%TO.N,GND*%
X170166000Y-89006000D03*
%TO.P,VR1,2,VOUT_2_2*%
%TO.N,+3.3V*%
X172466000Y-89006000D03*
%TO.P,VR1,3,VIN_3*%
%TO.N,+5V*%
X174766000Y-89006000D03*
D19*
%TO.P,VR1,4,VOUT_4_4*%
%TO.N,+3.3V*%
X172466000Y-83206000D03*
%TD*%
D17*
%TO.P,TEST_CS1,1,1_1*%
%TO.N,/ESP32-C3-02/CS*%
X230250000Y-87750000D03*
%TD*%
D20*
%TO.P,U1,1,OUT_1*%
%TO.N,+5V*%
X176187500Y-116687500D03*
%TO.P,U1,2,VPCC_2*%
%TO.N,/+5V_USB*%
X176187500Y-116187500D03*
%TO.P,U1,3,SEL_3*%
%TO.N,GND*%
X176187500Y-115687500D03*
%TO.P,U1,4,PROG2_4*%
%TO.N,/+5V_USB*%
X176187500Y-115187500D03*
%TO.P,U1,5,THERM_5*%
%TO.N,Net-(U1-THERM)*%
X176187500Y-114687500D03*
D21*
%TO.P,U1,6,~{PG}_6*%
%TO.N,/CHARGING*%
X175250000Y-113750000D03*
%TO.P,U1,7,STAT2_7*%
%TO.N,/CHARGING_POWER_GOOD*%
X174750000Y-113750000D03*
%TO.P,U1,8,STAT1/~{LBO}_8*%
%TO.N,/CHARGED*%
X174250000Y-113750000D03*
%TO.P,U1,9,~{TE}_9*%
%TO.N,Net-(U1-~{TE})*%
X173750000Y-113750000D03*
%TO.P,U1,10,V_{SS}_10*%
%TO.N,GND*%
X173250000Y-113750000D03*
D20*
%TO.P,U1,11,V_{SS}_11*%
X172312500Y-114687500D03*
%TO.P,U1,12,PROG3_12*%
%TO.N,Net-(U1-PROG3)*%
X172312500Y-115187500D03*
%TO.P,U1,13,PROG1_13*%
%TO.N,Net-(U1-PROG1)*%
X172312500Y-115687500D03*
%TO.P,U1,14,V_{BAT}_14*%
%TO.N,/VBAT*%
X172312500Y-116187500D03*
%TO.P,U1,15,V_{BAT}_15*%
X172312500Y-116687500D03*
D21*
%TO.P,U1,16,V_{BAT_SENSE}_16*%
X173250000Y-117625000D03*
%TO.P,U1,17,CE_17*%
%TO.N,/+5V_USB*%
X173750000Y-117625000D03*
%TO.P,U1,18,IN_18*%
X174250000Y-117625000D03*
%TO.P,U1,19,IN_19*%
X174750000Y-117625000D03*
%TO.P,U1,20,OUT_20*%
%TO.N,+5V*%
X175250000Y-117625000D03*
D22*
%TO.P,U1,21,V_{SS}_21*%
%TO.N,GND*%
X174250000Y-115687500D03*
%TD*%
D23*
%TO.P,J5,1,Pin_1_1*%
%TO.N,+3.3V*%
X177850000Y-65750000D03*
D24*
%TO.P,J5,2,Pin_2_2*%
%TO.N,/ESP32-C3-02/GPIO8*%
X175310000Y-65750000D03*
%TO.P,J5,3,Pin_3_3*%
%TO.N,/ESP32-C3-02/GPIO18*%
X172770000Y-65750000D03*
%TO.P,J5,4,Pin_4_4*%
%TO.N,/ESP32-C3-02/GPIO19*%
X170230000Y-65750000D03*
%TO.P,J5,5,Pin_5_5*%
%TO.N,GND*%
X167690000Y-65750000D03*
%TD*%
D25*
%TO.P,C4,1*%
%TO.N,+3.3V*%
X164130000Y-88750000D03*
%TO.P,C4,2*%
%TO.N,GND*%
X166750000Y-88750000D03*
%TD*%
D16*
%TO.P,C2,1*%
%TO.N,+5V*%
X172950000Y-95500000D03*
%TO.P,C2,2*%
%TO.N,GND*%
X171050000Y-95500000D03*
%TD*%
D26*
%TO.P,C15,1*%
%TO.N,+3.3V*%
X194977200Y-74515200D03*
%TO.P,C15,2*%
%TO.N,GND*%
X194977200Y-72615200D03*
%TD*%
D27*
%TO.P,D7,1*%
%TO.N,Net-(D7-Pad1)*%
X183750000Y-92287500D03*
%TO.P,D7,2*%
%TO.N,+3.3V*%
X183750000Y-90187500D03*
%TD*%
D28*
%TO.P,C11,1*%
%TO.N,Net-(U3-VBUS)*%
X190800000Y-99500000D03*
%TO.P,C11,2*%
%TO.N,GND*%
X192700000Y-99500000D03*
%TD*%
D29*
%TO.P,R31,1*%
%TO.N,/ESP32-C3-02/RTS*%
X196945100Y-111693200D03*
%TO.P,R31,2*%
%TO.N,Net-(Q3-B)*%
X198770100Y-111693200D03*
%TD*%
D25*
%TO.P,C3,1*%
%TO.N,+5V*%
X173310000Y-92500000D03*
%TO.P,C3,2*%
%TO.N,GND*%
X170690000Y-92500000D03*
%TD*%
D30*
%TO.P,U4,1,I/O1_1*%
%TO.N,/ESP32-C3-02/USB_D-*%
X186200000Y-103362500D03*
%TO.P,U4,2,GND_2*%
%TO.N,GND*%
X185250000Y-103362500D03*
%TO.P,U4,3,I/O2_3*%
%TO.N,/ESP32-C3-02/USB_D+*%
X184300000Y-103362500D03*
%TO.P,U4,4,I/O2_4*%
%TO.N,/USB_DP*%
X184300000Y-105637500D03*
%TO.P,U4,5,VBUS_5*%
%TO.N,/VBUS*%
X185250000Y-105637500D03*
%TO.P,U4,6,I/O1_6*%
%TO.N,/USB_DN*%
X186200000Y-105637500D03*
%TD*%
D31*
%TO.P,J1,A1,GNDA1_A1*%
%TO.N,GND*%
X182503250Y-109082500D03*
%TO.P,J1,A2,SSTXP1_A2*%
%TO.N,unconnected-(J1-SSTXP1-PadA2)*%
X183003250Y-109082500D03*
%TO.P,J1,A3,SSTXN1_A3*%
%TO.N,unconnected-(J1-SSTXN1-PadA3)*%
X183503250Y-109082500D03*
%TO.P,J1,A4,VBUSA1_A4*%
%TO.N,/VBUS*%
X184003250Y-109082500D03*
%TO.P,J1,A5,CC1_A5*%
%TO.N,Net-(J1-CC1)*%
X184503250Y-109082500D03*
%TO.P,J1,A6,DP1_A6*%
%TO.N,/USB_DP*%
X185003250Y-109082500D03*
%TO.P,J1,A7,DN1_A7*%
%TO.N,/USB_DN*%
X185503250Y-109082500D03*
%TO.P,J1,A8,SBU1_A8*%
%TO.N,unconnected-(J1-SBU1-PadA8)*%
X186003250Y-109082500D03*
%TO.P,J1,A9,VBUSA2_A9*%
%TO.N,/VBUS*%
X186503250Y-109082500D03*
%TO.P,J1,A10,SSRXN2_A10*%
%TO.N,unconnected-(J1-SSRXN2-PadA10)*%
X187003250Y-109082500D03*
%TO.P,J1,A11,SSRXP2_A11*%
%TO.N,unconnected-(J1-SSRXP2-PadA11)*%
X187503250Y-109082500D03*
%TO.P,J1,A12,GNDA2_A12*%
%TO.N,GND*%
X188003250Y-109082500D03*
D32*
%TO.P,J1,B1,GNDB1_B1*%
X188053250Y-110332500D03*
%TO.P,J1,B2,SSTXP2_B2*%
%TO.N,unconnected-(J1-SSTXP2-PadB2)*%
X187653250Y-111042500D03*
%TO.P,J1,B3,SSTXN2_B3*%
%TO.N,unconnected-(J1-SSTXN2-PadB3)*%
X186853250Y-111042500D03*
%TO.P,J1,B4,VBUSB1_B4*%
%TO.N,/VBUS*%
X186453250Y-110332500D03*
%TO.P,J1,B5,CC2_B5*%
%TO.N,Net-(J1-CC2)*%
X186053250Y-111042500D03*
%TO.P,J1,B6,DP2_B6*%
%TO.N,/USB_DP*%
X185653250Y-110332500D03*
%TO.P,J1,B7,DN2_B7*%
%TO.N,/USB_DN*%
X184853250Y-110332500D03*
%TO.P,J1,B8,SBU2_B8*%
%TO.N,unconnected-(J1-SBU2-PadB8)*%
X184453250Y-111042500D03*
%TO.P,J1,B9,VBUSB2_B9*%
%TO.N,/VBUS*%
X184053250Y-110332500D03*
%TO.P,J1,B10,SSRXN1_B10*%
%TO.N,unconnected-(J1-SSRXN1-PadB10)*%
X183653250Y-111042500D03*
%TO.P,J1,B11,SSRXP1_B11*%
%TO.N,unconnected-(J1-SSRXP1-PadB11)*%
X182853250Y-111042500D03*
%TO.P,J1,B12,GNDB2_B12*%
%TO.N,GND*%
X182453250Y-110332500D03*
%TO.P,J1,G1,GND/SHIELD_G1*%
X187253250Y-110332500D03*
%TO.P,J1,G2,GND/SHIELD_G2*%
X183253250Y-110332500D03*
D33*
%TO.P,J1,G3,GND/SHIELD_G3*%
X185253250Y-113662500D03*
%TO.P,J1,G4,GND/SHIELD_G4*%
X185253250Y-116762500D03*
D34*
%TO.P,J1,S1,GND/SHIELD_S1*%
X180983250Y-111482500D03*
%TO.P,J1,S2,GND/SHIELD_S2*%
X189523250Y-111482500D03*
%TO.P,J1,S3,GND/SHIELD_S3*%
X180983250Y-116212500D03*
%TO.P,J1,S4,GND/SHIELD_S4*%
X189523250Y-116212500D03*
%TD*%
D28*
%TO.P,C6,1*%
%TO.N,/+5V_USB*%
X173300000Y-119750000D03*
%TO.P,C6,2*%
%TO.N,GND*%
X175200000Y-119750000D03*
%TD*%
D10*
%TO.P,R30,1*%
%TO.N,/ESP32-C3-02/DTR*%
X204162500Y-112000000D03*
%TO.P,R30,2*%
%TO.N,Net-(Q2-B)*%
X202337500Y-112000000D03*
%TD*%
D28*
%TO.P,C19,1*%
%TO.N,/ESP32-C3-02/BOOT*%
X196957600Y-114130700D03*
%TO.P,C19,2*%
%TO.N,GND*%
X198857600Y-114130700D03*
%TD*%
D14*
%TO.P,R5,1*%
%TO.N,Net-(U1-PROG1)*%
X162500000Y-109662500D03*
%TO.P,R5,2*%
%TO.N,GND*%
X162500000Y-107837500D03*
%TD*%
D35*
%TO.P,R18,1*%
%TO.N,+3.3V*%
X227750000Y-89837500D03*
%TO.P,R18,2*%
%TO.N,/ESP32-C3-02/CS_SD*%
X227750000Y-91662500D03*
%TD*%
D36*
%TO.P,U3,1,RS485/GPIO.1_1*%
%TO.N,unconnected-(U3-RS485{slash}GPIO.1-Pad1)*%
X183500000Y-100700000D03*
D37*
%TO.P,U3,2,CLK/GPIO.0_2*%
%TO.N,unconnected-(U3-CLK{slash}GPIO.0-Pad2)*%
X184000000Y-101000000D03*
%TO.P,U3,3,GND_3*%
%TO.N,GND*%
X184500000Y-101000000D03*
%TO.P,U3,4,D+_4*%
%TO.N,/ESP32-C3-02/USB_D+*%
X185000000Y-101000000D03*
%TO.P,U3,5,D-_5*%
%TO.N,/ESP32-C3-02/USB_D-*%
X185500000Y-101000000D03*
D36*
%TO.P,U3,6,VDD_6*%
%TO.N,+3.3V*%
X186000000Y-100700000D03*
D38*
%TO.P,U3,7,VREGIN_7*%
X186300000Y-100200000D03*
%TO.P,U3,8,VBUS_8*%
%TO.N,Net-(U3-VBUS)*%
X186300000Y-99700000D03*
%TO.P,U3,9,~{RST}_9*%
%TO.N,Net-(U3-~{RST})*%
X186300000Y-99200000D03*
%TO.P,U3,10,NC_10*%
%TO.N,unconnected-(U3-NC-Pad10)*%
X186300000Y-98700000D03*
D36*
%TO.P,U3,11,~{SUSPEND}_11*%
%TO.N,unconnected-(U3-~{SUSPEND}-Pad11)*%
X186000000Y-98200000D03*
D37*
%TO.P,U3,12,GND_12*%
%TO.N,GND*%
X185500000Y-97900000D03*
%TO.P,U3,13,~{WAKEUP}_13*%
%TO.N,unconnected-(U3-~{WAKEUP}-Pad13)*%
X185000000Y-97900000D03*
%TO.P,U3,14,SUSPEND_14*%
%TO.N,unconnected-(U3-SUSPEND-Pad14)*%
X184500000Y-97900000D03*
%TO.P,U3,15,~{CTS}_15*%
%TO.N,/ESP32-C3-02/DTR*%
X184000000Y-97900000D03*
D36*
%TO.P,U3,16,~{RTS}_16*%
%TO.N,/ESP32-C3-02/RTS*%
X183500000Y-98200000D03*
D38*
%TO.P,U3,17,RXD_17*%
%TO.N,/ESP32-C3-02/RX_TX*%
X183200000Y-98700000D03*
%TO.P,U3,18,TXD_18*%
%TO.N,/ESP32-C3-02/TX_RX*%
X183200000Y-99200000D03*
%TO.P,U3,19,~{RXT}/GPIO.3_19*%
%TO.N,Net-(U3-~{RXT}{slash}GPIO.3)*%
X183200000Y-99700000D03*
%TO.P,U3,20,~{TXT}/GPIO.2_20*%
%TO.N,Net-(U3-~{TXT}{slash}GPIO.2)*%
X183200000Y-100200000D03*
D39*
%TO.P,U3,21,GND_21*%
%TO.N,GND*%
X184750000Y-99450000D03*
%TD*%
D14*
%TO.P,R15,1*%
%TO.N,Net-(U3-~{RXT}{slash}GPIO.3)*%
X185950000Y-94575000D03*
%TO.P,R15,2*%
%TO.N,Net-(D8-Pad-)*%
X185950000Y-92750000D03*
%TD*%
%TO.P,R6,1*%
%TO.N,Net-(U1-PROG3)*%
X164500000Y-109662500D03*
%TO.P,R6,2*%
%TO.N,GND*%
X164500000Y-107837500D03*
%TD*%
D40*
%TO.P,C8,1*%
%TO.N,+3.3V*%
X214250000Y-72550000D03*
%TO.P,C8,2*%
%TO.N,GND*%
X214250000Y-74450000D03*
%TD*%
D10*
%TO.P,R21,1*%
%TO.N,+3.3V*%
X193139700Y-70815200D03*
%TO.P,R21,2*%
%TO.N,/ESP32-C3-02/SCL*%
X191314700Y-70815200D03*
%TD*%
D41*
%TO.P,U7,1,IN+_1*%
%TO.N,Net-(U7-IN+)*%
X176974300Y-74792400D03*
%TO.P,U7,2,GND_2*%
%TO.N,GND*%
X177624300Y-74792400D03*
%TO.P,U7,3,IN-_3*%
%TO.N,Net-(U7-IN-)*%
X178274300Y-74792400D03*
%TO.P,U7,4,OUT_4*%
%TO.N,/ESP32-C3-02/MIC_OUT*%
X178274300Y-72872400D03*
%TO.P,U7,5,VCC_5*%
%TO.N,+3.3V*%
X176974300Y-72872400D03*
%TD*%
D29*
%TO.P,R25,1*%
%TO.N,Net-(U7-IN-)*%
X176711800Y-79082400D03*
%TO.P,R25,2*%
%TO.N,Net-(C21-Pad1)*%
X178536800Y-79082400D03*
%TD*%
D14*
%TO.P,R16,1*%
%TO.N,/ESP32-C3-02/SCLK*%
X212000000Y-81662500D03*
%TO.P,R16,2*%
%TO.N,Net-(U2-IO6)*%
X212000000Y-79837500D03*
%TD*%
D28*
%TO.P,C5,1*%
%TO.N,+3.3V*%
X164490000Y-85500000D03*
%TO.P,C5,2*%
%TO.N,GND*%
X166390000Y-85500000D03*
%TD*%
D10*
%TO.P,R28,1*%
%TO.N,+3.3V*%
X174699300Y-75082400D03*
%TO.P,R28,2*%
%TO.N,Net-(C18-Pad2)*%
X172874300Y-75082400D03*
%TD*%
D14*
%TO.P,R32,1*%
%TO.N,/ESP32-C3-02/EN*%
X194157600Y-117955700D03*
%TO.P,R32,2*%
%TO.N,+3.3V*%
X194157600Y-116130700D03*
%TD*%
%TO.P,R4,1*%
%TO.N,GND*%
X191500000Y-115250000D03*
%TO.P,R4,2*%
%TO.N,Net-(J1-CC1)*%
X191500000Y-113425000D03*
%TD*%
D25*
%TO.P,C9,1*%
%TO.N,GND*%
X190690000Y-102750000D03*
%TO.P,C9,2*%
%TO.N,+3.3V*%
X193310000Y-102750000D03*
%TD*%
D10*
%TO.P,R22,1*%
%TO.N,Net-(U7-IN-)*%
X181986800Y-74832400D03*
%TO.P,R22,2*%
%TO.N,/ESP32-C3-02/MIC_OUT*%
X180161800Y-74832400D03*
%TD*%
D16*
%TO.P,C17,1*%
%TO.N,Net-(U7-IN-)*%
X182024300Y-72832400D03*
%TO.P,C17,2*%
%TO.N,/ESP32-C3-02/MIC_OUT*%
X180124300Y-72832400D03*
%TD*%
D28*
%TO.P,C20,1*%
%TO.N,/ESP32-C3-02/EN*%
X201907600Y-114130700D03*
%TO.P,C20,2*%
%TO.N,GND*%
X203807600Y-114130700D03*
%TD*%
D42*
%TO.P,C7,1*%
%TO.N,+3.3V*%
X211250000Y-73800000D03*
%TO.P,C7,2*%
%TO.N,GND*%
X211250000Y-76420000D03*
%TD*%
D29*
%TO.P,R13,1*%
%TO.N,+3.3V*%
X180287500Y-103250000D03*
%TO.P,R13,2*%
%TO.N,Net-(U3-~{RST})*%
X182112500Y-103250000D03*
%TD*%
D14*
%TO.P,R24,1*%
%TO.N,+3.3V*%
X205398800Y-75072100D03*
%TO.P,R24,2*%
%TO.N,/ESP32-C3-02/PHOTO_C*%
X205398800Y-73247100D03*
%TD*%
%TO.P,R7,1*%
%TO.N,/CHARGING_POWER_GOOD*%
X170500000Y-109662500D03*
%TO.P,R7,2*%
%TO.N,Net-(D5-Pad-)*%
X170500000Y-107837500D03*
%TD*%
D10*
%TO.P,R10,1*%
%TO.N,GND*%
X185412500Y-84750000D03*
%TO.P,R10,2*%
%TO.N,/PWD_LED*%
X183587500Y-84750000D03*
%TD*%
D43*
%TO.P,S1,1*%
%TO.N,GND*%
X199407600Y-118720700D03*
%TO.P,S1,2*%
X196857600Y-118720700D03*
%TO.P,S1,3*%
%TO.N,/ESP32-C3-02/BOOT*%
X199407600Y-117560700D03*
%TO.P,S1,4*%
X196857600Y-117560700D03*
%TD*%
D17*
%TO.P,TEST_MOSI1,1,1_1*%
%TO.N,/ESP32-C3-02/MOSI_DI*%
X222250000Y-88000000D03*
%TD*%
D28*
%TO.P,C13,1*%
%TO.N,+3.3V*%
X220550000Y-91500000D03*
%TO.P,C13,2*%
%TO.N,GND*%
X222450000Y-91500000D03*
%TD*%
D10*
%TO.P,R27,1*%
%TO.N,+3.3V*%
X178536800Y-70832400D03*
%TO.P,R27,2*%
%TO.N,Net-(U7-IN+)*%
X176711800Y-70832400D03*
%TD*%
D28*
%TO.P,C22,1*%
%TO.N,Net-(C22-Pad1)*%
X172811800Y-79087400D03*
%TO.P,C22,2*%
%TO.N,Net-(U7-IN+)*%
X174711800Y-79087400D03*
%TD*%
D40*
%TO.P,C14,1*%
%TO.N,+3.3V*%
X197337500Y-85895000D03*
%TO.P,C14,2*%
%TO.N,GND*%
X197337500Y-87795000D03*
%TD*%
D10*
%TO.P,R29,1*%
%TO.N,Net-(C18-Pad2)*%
X174699300Y-77082400D03*
%TO.P,R29,2*%
%TO.N,Net-(C22-Pad1)*%
X172874300Y-77082400D03*
%TD*%
D44*
%TO.P,U5,1,~{CS}_1*%
%TO.N,/ESP32-C3-02/CS*%
X199750000Y-83440000D03*
%TO.P,U5,2,DO/IO_{1}_2*%
%TO.N,Net-(U5-DO{slash}IO_{1})*%
X199750000Y-84710000D03*
%TO.P,U5,3,~{WP}/IO_{2}_3*%
%TO.N,+3.3V*%
X199750000Y-85980000D03*
%TO.P,U5,4,GND_4*%
%TO.N,GND*%
X199750000Y-87250000D03*
%TO.P,U5,5,DI/IO_{0}_5*%
%TO.N,/ESP32-C3-02/MOSI_DI*%
X206925000Y-87250000D03*
%TO.P,U5,6,CLK_6*%
%TO.N,/ESP32-C3-02/SCLK*%
X206925000Y-85980000D03*
%TO.P,U5,7,~{HOLD}/~{RESET}/IO_{3}_7*%
%TO.N,+3.3V*%
X206925000Y-84710000D03*
%TO.P,U5,8,VCC_8*%
X206925000Y-83440000D03*
%TD*%
D45*
%TO.P,F1,1*%
%TO.N,/VBUS*%
X176705348Y-101419358D03*
%TO.P,F1,2*%
%TO.N,/+5V_USB*%
X173735348Y-101419358D03*
%TD*%
D23*
%TO.P,J4,1,Pin_1_1*%
%TO.N,+3.3V*%
X190370000Y-65750000D03*
D24*
%TO.P,J4,2,Pin_2_2*%
%TO.N,/ESP32-C3-02/SDA*%
X187830000Y-65750000D03*
%TO.P,J4,3,Pin_3_3*%
%TO.N,/ESP32-C3-02/SCL*%
X185290000Y-65750000D03*
%TO.P,J4,4,Pin_4_4*%
%TO.N,GND*%
X182750000Y-65750000D03*
%TD*%
D27*
%TO.P,D8,+*%
%TO.N,+3.3V*%
X186000000Y-88650000D03*
%TO.P,D8,-*%
%TO.N,Net-(D8-Pad-)*%
X186000000Y-90750000D03*
%TD*%
D43*
%TO.P,S2,1*%
%TO.N,GND*%
X204182600Y-118710700D03*
%TO.P,S2,2*%
X201632600Y-118710700D03*
%TO.P,S2,3*%
%TO.N,/ESP32-C3-02/EN*%
X204182600Y-117550700D03*
%TO.P,S2,4*%
X201632600Y-117550700D03*
%TD*%
D35*
%TO.P,R17,1*%
%TO.N,Net-(U2-IO7)*%
X214250000Y-79925000D03*
%TO.P,R17,2*%
%TO.N,/ESP32-C3-02/MOSI_DI*%
X214250000Y-81750000D03*
%TD*%
D10*
%TO.P,R19,1*%
%TO.N,Net-(J3-DAT0)*%
X208075000Y-89250000D03*
%TO.P,R19,2*%
%TO.N,/ESP32-C3-02/MISO_DO*%
X206250000Y-89250000D03*
%TD*%
D26*
%TO.P,C1,1*%
%TO.N,/VBUS*%
X190000000Y-107200000D03*
%TO.P,C1,2*%
%TO.N,GND*%
X190000000Y-105300000D03*
%TD*%
D46*
%TO.P,Q1,1*%
%TO.N,GND*%
X199971800Y-73465600D03*
%TO.P,Q1,2*%
%TO.N,N/C*%
X199971800Y-74565600D03*
D47*
%TO.P,Q1,3*%
%TO.N,/ESP32-C3-02/PHOTO_C*%
X203481800Y-74015600D03*
%TD*%
D10*
%TO.P,R23,1*%
%TO.N,+3.3V*%
X193139700Y-68815200D03*
%TO.P,R23,2*%
%TO.N,/ESP32-C3-02/SDA*%
X191314700Y-68815200D03*
%TD*%
D17*
%TO.P,TEST_MISO1,1,1_1*%
%TO.N,/ESP32-C3-02/MISO_DO*%
X204500000Y-92750000D03*
%TD*%
D14*
%TO.P,R14,1*%
%TO.N,Net-(U3-~{TXT}{slash}GPIO.2)*%
X183750000Y-96162500D03*
%TO.P,R14,2*%
%TO.N,Net-(D7-Pad1)*%
X183750000Y-94337500D03*
%TD*%
%TO.P,R2,1*%
%TO.N,Net-(U1-THERM)*%
X174500000Y-109662500D03*
%TO.P,R2,2*%
%TO.N,GND*%
X174500000Y-107837500D03*
%TD*%
D15*
%TO.P,Q3,1,B_1*%
%TO.N,Net-(Q3-B)*%
X201607600Y-109005700D03*
%TO.P,Q3,2,E_2*%
%TO.N,/ESP32-C3-02/BOOT*%
X203507600Y-109005700D03*
%TO.P,Q3,3,C_3*%
%TO.N,/ESP32-C3-02/DTR*%
X202557600Y-107130700D03*
%TD*%
D25*
%TO.P,C12,1*%
%TO.N,+3.3V*%
X217810000Y-90750000D03*
%TO.P,C12,2*%
%TO.N,GND*%
X215190000Y-90750000D03*
%TD*%
D14*
%TO.P,R12,1*%
%TO.N,Net-(U3-VBUS)*%
X188000000Y-94575000D03*
%TO.P,R12,2*%
%TO.N,GND*%
X188000000Y-92750000D03*
%TD*%
D26*
%TO.P,C10,1*%
%TO.N,GND*%
X181000000Y-92250000D03*
%TO.P,C10,2*%
%TO.N,+3.3V*%
X181000000Y-90350000D03*
%TD*%
D14*
%TO.P,R3,1*%
%TO.N,GND*%
X191500000Y-111500000D03*
%TO.P,R3,2*%
%TO.N,Net-(J1-CC2)*%
X191500000Y-109675000D03*
%TD*%
D17*
%TO.P,TEST_CS_SD1,1,1_1*%
%TO.N,/ESP32-C3-02/CS_SD*%
X234750000Y-90500000D03*
%TD*%
D27*
%TO.P,CHARGED,1*%
%TO.N,Net-(D3-Pad1)*%
X163500000Y-104500000D03*
%TO.P,CHARGED,2*%
%TO.N,/+5V_USB*%
X163500000Y-102400000D03*
%TD*%
D48*
%TO.P,J2,1,1_1*%
%TO.N,GND*%
X165000000Y-117000000D03*
%TO.P,J2,2,2_2*%
%TO.N,/VBAT*%
X167000000Y-117000000D03*
D49*
%TO.P,J2,S1*%
%TO.N,N/C*%
X162600000Y-114750000D03*
%TO.P,J2,S2*%
X169400000Y-114750000D03*
%TD*%
D10*
%TO.P,R20,1*%
%TO.N,/ESP32-C3-02/MISO_DO*%
X204500000Y-89250000D03*
%TO.P,R20,2*%
%TO.N,Net-(U5-DO{slash}IO_{1})*%
X202675000Y-89250000D03*
%TD*%
D16*
%TO.P,C16,1*%
%TO.N,+3.3V*%
X178574300Y-68832400D03*
%TO.P,C16,2*%
%TO.N,GND*%
X176674300Y-68832400D03*
%TD*%
D50*
%TO.P,J3,1,CD/DAT3_1*%
%TO.N,/ESP32-C3-02/CS_SD*%
X227875000Y-93700000D03*
%TO.P,J3,2,CMD_2*%
%TO.N,/ESP32-C3-02/MOSI_DI*%
X225375000Y-93700000D03*
%TO.P,J3,3,VSS1_3*%
%TO.N,GND*%
X222875000Y-93700000D03*
%TO.P,J3,4,VDD1_4*%
%TO.N,+3.3V*%
X220375000Y-93700000D03*
%TO.P,J3,5,CLK_5*%
%TO.N,/ESP32-C3-02/SCLK*%
X217875000Y-93700000D03*
%TO.P,J3,6,VSS2_6*%
%TO.N,GND*%
X215375000Y-93700000D03*
%TO.P,J3,7,DAT0_7*%
%TO.N,Net-(J3-DAT0)*%
X212950000Y-93700000D03*
%TO.P,J3,8,DAT1_8*%
%TO.N,GND*%
X211250000Y-93700000D03*
%TO.P,J3,9,DAT2_9*%
X230375000Y-93700000D03*
D51*
%TO.P,J3,CD_IND,CD_IND_CD_IND*%
%TO.N,unconnected-(J3-PadCD_IND)*%
X209950000Y-93700000D03*
D52*
%TO.P,J3,G1,SHIELD_GND_G1*%
%TO.N,GND*%
X207350000Y-95500000D03*
%TO.P,J3,G2,SHIELD_GND_G2*%
X232450000Y-95500000D03*
%TO.P,J3,G3,SHIELD_GND_G3*%
X234650000Y-117000000D03*
%TO.P,J3,G4,SHIELD_GND_G4*%
X207350000Y-117000000D03*
D51*
%TO.P,J3,WP,WP_WP*%
%TO.N,unconnected-(J3-PadWP)*%
X208750000Y-93700000D03*
%TD*%
D14*
%TO.P,R9,1*%
%TO.N,/CHARGING*%
X172500000Y-109662500D03*
%TO.P,R9,2*%
%TO.N,Net-(D6-Pad-)*%
X172500000Y-107837500D03*
%TD*%
D27*
%TO.P,CHRG_PWR_OK,+*%
%TO.N,/+5V_USB*%
X165750000Y-102400000D03*
%TO.P,CHRG_PWR_OK,-*%
%TO.N,Net-(D5-Pad-)*%
X165750000Y-104500000D03*
%TD*%
D29*
%TO.P,R11,1*%
%TO.N,/VBUS*%
X180337500Y-105250000D03*
%TO.P,R11,2*%
%TO.N,Net-(U3-VBUS)*%
X182162500Y-105250000D03*
%TD*%
D14*
%TO.P,R1,1*%
%TO.N,Net-(U1-~{TE})*%
X166475000Y-109707500D03*
%TO.P,R1,2*%
%TO.N,GND*%
X166475000Y-107882500D03*
%TD*%
D53*
%TO.P,U6,1,GND_1*%
%TO.N,GND*%
X191202200Y-74540200D03*
%TO.P,U6,2,CSB_2*%
%TO.N,+3.3V*%
X191202200Y-73890200D03*
%TO.P,U6,3,SDI_3*%
%TO.N,/ESP32-C3-02/SDA*%
X191202200Y-73240200D03*
%TO.P,U6,4,SCK_4*%
%TO.N,/ESP32-C3-02/SCL*%
X191202200Y-72590200D03*
%TO.P,U6,5,SDO_5*%
%TO.N,GND*%
X193252200Y-72590200D03*
%TO.P,U6,6,VDDIO_6*%
%TO.N,+3.3V*%
X193252200Y-73240200D03*
%TO.P,U6,7,GND_7*%
%TO.N,GND*%
X193252200Y-73890200D03*
%TO.P,U6,8,VDD_8*%
%TO.N,+3.3V*%
X193252200Y-74540200D03*
%TD*%
D54*
%TO.P,MK1,GND*%
%TO.N,GND*%
X166374300Y-75132400D03*
%TO.P,MK1,OUT*%
%TO.N,Net-(C22-Pad1)*%
X166374300Y-77032400D03*
%TD*%
D27*
%TO.P,CHARGING,+*%
%TO.N,/+5V_USB*%
X167750000Y-102450000D03*
%TO.P,CHARGING,-*%
%TO.N,Net-(D6-Pad-)*%
X167750000Y-104550000D03*
%TD*%
%TO.P,D4,+*%
%TO.N,+3.3V*%
X179400000Y-85000000D03*
%TO.P,D4,-*%
%TO.N,/PWD_LED*%
X181500000Y-85000000D03*
%TD*%
D55*
%TO.N,GND*%
X190950000Y-75400000D03*
D56*
X208432400Y-76454000D03*
D55*
X166319200Y-90881200D03*
X166827200Y-67919600D03*
X190738400Y-116011600D03*
X198831200Y-115570000D03*
X215341200Y-95148400D03*
X174244000Y-69697600D03*
D56*
X173677000Y-105977000D03*
D55*
X180760200Y-93739800D03*
X209143600Y-116332000D03*
X186990800Y-84890800D03*
X198600000Y-72450000D03*
X168198800Y-92151200D03*
X168415800Y-74334200D03*
X187045600Y-96621600D03*
X189523250Y-113842800D03*
X168198800Y-93624400D03*
X236423200Y-115925600D03*
X171551600Y-73253600D03*
X177624300Y-76098400D03*
X181600000Y-108250000D03*
X165482000Y-107837500D03*
X211250000Y-95150000D03*
X175463200Y-69291200D03*
X190500000Y-111482500D03*
X180983250Y-113944400D03*
X185267600Y-102412800D03*
X196850000Y-119583200D03*
X191185000Y-101015000D03*
D56*
X228904800Y-79248000D03*
D55*
X219000000Y-84050000D03*
X163500800Y-107837500D03*
X234492800Y-95504000D03*
X195550000Y-71500000D03*
X199400000Y-119583200D03*
X197104000Y-89154000D03*
X186366200Y-117316200D03*
X188700000Y-91362500D03*
X176800000Y-119650000D03*
X189000000Y-108650000D03*
X186486800Y-114186800D03*
X172250000Y-113650000D03*
X167995600Y-90932000D03*
X204200000Y-119697350D03*
X169570400Y-94996000D03*
X169621200Y-96266000D03*
X222850000Y-95250000D03*
X203807600Y-115492400D03*
X163576000Y-117856000D03*
X181950800Y-67549200D03*
X163576000Y-118618000D03*
X201650000Y-119697350D03*
X168300400Y-94843600D03*
X163576000Y-119380000D03*
X190000000Y-104089200D03*
D56*
X229000000Y-78150000D03*
D55*
X208991200Y-95402400D03*
%TO.N,+3.3V*%
X194157600Y-114707600D03*
D56*
X208200000Y-72950000D03*
D55*
X174193200Y-81229200D03*
X182650000Y-88287500D03*
X191900800Y-67280800D03*
X219608400Y-90750000D03*
X170459400Y-81229200D03*
X175437800Y-81229200D03*
X195580000Y-85895000D03*
X176682400Y-81229200D03*
X162052000Y-88750000D03*
X226872800Y-88798400D03*
X193500000Y-75400000D03*
X172948600Y-81229200D03*
D56*
X206908400Y-80467200D03*
D55*
X162500000Y-86100000D03*
D56*
X180750000Y-102108000D03*
D55*
X175717600Y-75082400D03*
X171704000Y-81229200D03*
X195450000Y-76450000D03*
X220375000Y-92659200D03*
D56*
X196000000Y-103650000D03*
D55*
X193139700Y-69900800D03*
X169214800Y-81229200D03*
X178250000Y-86200000D03*
X186537600Y-101244400D03*
X185000000Y-86750000D03*
D56*
X180450000Y-88500000D03*
D55*
%TO.N,/ESP32-C3-02/EN*%
X197600000Y-105400000D03*
X205379800Y-115870200D03*
X200609200Y-114147600D03*
X191922400Y-119075200D03*
X200609200Y-116281200D03*
X226850000Y-87450000D03*
%TO.N,/ESP32-C3-02/SDA*%
X222900000Y-75400000D03*
X190156200Y-74156200D03*
%TO.N,/ESP32-C3-02/GPIO8*%
X184100000Y-75900000D03*
X202500000Y-81350000D03*
X174142400Y-68376800D03*
X219000000Y-81350000D03*
%TO.N,/ESP32-C3-02/BOOT*%
X204000000Y-110400000D03*
X225348800Y-87833200D03*
%TO.N,/ESP32-C3-02/CS*%
X228466000Y-87750000D03*
X202400000Y-83950000D03*
%TO.N,/ESP32-C3-02/TX_RX*%
X180898800Y-98501200D03*
X229700000Y-82350000D03*
%TO.N,/ESP32-C3-02/RX_TX*%
X180746400Y-97688400D03*
X232100000Y-81600000D03*
%TO.N,/ESP32-C3-02/GPIO18*%
X168639000Y-71611000D03*
X231800000Y-80600000D03*
%TO.N,/ESP32-C3-02/GPIO19*%
X231700000Y-77450000D03*
X169468800Y-68376800D03*
%TO.N,/ESP32-C3-02/SCL*%
X230500000Y-74100000D03*
X190100000Y-72950000D03*
%TO.N,/ESP32-C3-02/PHOTO_C*%
X231698800Y-72796400D03*
X202950000Y-72150000D03*
%TO.N,/ESP32-C3-02/CS_SD*%
X237200000Y-87528400D03*
X235204000Y-88900000D03*
%TO.N,Net-(Q2-B)*%
X196857600Y-110292400D03*
X199950000Y-113300000D03*
%TO.N,/ESP32-C3-02/RTS*%
X181508400Y-97078800D03*
X199100000Y-102400000D03*
%TO.N,/+5V_USB*%
X175200000Y-118550000D03*
X174400000Y-118550000D03*
X171800000Y-119950000D03*
X164689600Y-102400000D03*
X177250000Y-115950000D03*
X168649200Y-101150800D03*
X172416348Y-101393358D03*
X172416348Y-102409358D03*
X172416348Y-100299358D03*
X166721600Y-102400000D03*
X177200000Y-114950000D03*
%TO.N,Net-(U1-PROG3)*%
X164847400Y-111047400D03*
X170992800Y-115163600D03*
%TO.N,Net-(U1-PROG1)*%
X163100000Y-111150000D03*
X170950000Y-116100000D03*
%TO.N,/USB_DP*%
X183550000Y-105918000D03*
%TO.N,/VBUS*%
X178258348Y-100377358D03*
X187125200Y-107724800D03*
X185150000Y-106800000D03*
X183600000Y-107950000D03*
X178258348Y-101393358D03*
X178258348Y-102409358D03*
%TO.N,/USB_DN*%
X187200000Y-105900000D03*
%TO.N,Net-(J1-CC2)*%
X192600000Y-108300000D03*
%TO.N,/ESP32-C3-02/DTR*%
X183438800Y-97350000D03*
X202350000Y-104750000D03*
%TO.N,Net-(U3-~{RST})*%
X187425000Y-98200000D03*
X182118000Y-101300000D03*
%TO.N,Net-(U3-~{RXT}{slash}GPIO.3)*%
X181200000Y-99300000D03*
X185724800Y-96012000D03*
%TD*%
%TO.N,Net-(U7-IN+)*%
D57*
X174699300Y-72844900D02*
X176711800Y-70832400D01*
X175847300Y-75919400D02*
X176974300Y-74792400D01*
X174711800Y-79087400D02*
X175847300Y-77951900D01*
X175264300Y-73082400D02*
X176974300Y-74792400D01*
X175847300Y-77951900D02*
X175847300Y-75919400D01*
X174699300Y-73082400D02*
X175264300Y-73082400D01*
X174699300Y-73082400D02*
X174699300Y-72844900D01*
%TO.N,GND*%
X197337500Y-88962500D02*
X197150000Y-89150000D01*
D58*
X190500000Y-111482500D02*
X191482500Y-111482500D01*
D57*
X199205000Y-87795000D02*
X199750000Y-87250000D01*
D58*
X185500000Y-97900000D02*
X186750000Y-96650000D01*
X177624300Y-76098400D02*
X177624300Y-74792400D01*
X184500000Y-99700000D02*
X184750000Y-99450000D01*
D59*
X222875000Y-93700000D02*
X222875000Y-95225000D01*
D58*
X186366200Y-117316200D02*
X186400000Y-117350000D01*
X186486800Y-114186800D02*
X186500000Y-114200000D01*
D59*
X167690000Y-65750000D02*
X167690000Y-67110000D01*
D57*
X187253250Y-110332500D02*
X188053250Y-110332500D01*
X186990800Y-84890800D02*
X187000000Y-84900000D01*
D60*
X190690000Y-102750000D02*
X190690000Y-101510000D01*
D57*
X194977200Y-72615200D02*
X195550000Y-72042400D01*
D59*
X218650000Y-84400000D02*
X219000000Y-84050000D01*
X182750000Y-66750000D02*
X181950800Y-67549200D01*
X222875000Y-95225000D02*
X222850000Y-95250000D01*
X208450000Y-117000000D02*
X209100000Y-116350000D01*
D58*
X176674300Y-68832400D02*
X175867600Y-68832400D01*
D57*
X194952200Y-72590200D02*
X194977200Y-72615200D01*
D59*
X182750000Y-65750000D02*
X182750000Y-66750000D01*
D57*
X191202200Y-75147800D02*
X190950000Y-75400000D01*
X188000000Y-92750000D02*
X188000000Y-92062500D01*
D59*
X215375000Y-93700000D02*
X215375000Y-95125000D01*
D57*
X198857600Y-114130700D02*
X198857600Y-115542400D01*
D58*
X190738400Y-116011600D02*
X191500000Y-115250000D01*
D60*
X225250000Y-77500000D02*
X225250000Y-79700000D01*
D58*
X189523250Y-116212500D02*
X189523250Y-113842800D01*
X182503250Y-109082500D02*
X182432500Y-109082500D01*
D60*
X163500800Y-107837500D02*
X166430000Y-107837500D01*
D57*
X199400000Y-118714150D02*
X199400000Y-119585850D01*
D58*
X185253250Y-113662500D02*
X185962500Y-113662500D01*
X191482500Y-111482500D02*
X191500000Y-111500000D01*
D60*
X174500000Y-106800000D02*
X173677000Y-105977000D01*
D57*
X201657600Y-118834850D02*
X201657600Y-119706550D01*
D58*
X185253250Y-116762500D02*
X185812500Y-116762500D01*
D60*
X162500000Y-107837500D02*
X163500800Y-107837500D01*
D59*
X235350000Y-117000000D02*
X236400000Y-115950000D01*
D57*
X198857600Y-115542400D02*
X198850000Y-115550000D01*
X197337500Y-87795000D02*
X199205000Y-87795000D01*
X186850000Y-84750000D02*
X186990800Y-84890800D01*
X188053250Y-110332500D02*
X188053250Y-109132500D01*
X196857600Y-118720700D02*
X196857600Y-119592400D01*
X203807600Y-114130700D02*
X203807600Y-115492400D01*
D59*
X232175000Y-95500000D02*
X230375000Y-93700000D01*
D58*
X189523250Y-111482500D02*
X190500000Y-111482500D01*
D61*
X212280000Y-76420000D02*
X214250000Y-74450000D01*
D58*
X182453250Y-110332500D02*
X182453250Y-109132500D01*
D57*
X193252200Y-72590200D02*
X194952200Y-72590200D01*
X174774300Y-70224300D02*
X174250000Y-69700000D01*
D60*
X190690000Y-101510000D02*
X191185000Y-101015000D01*
D57*
X196857600Y-119592400D02*
X196850000Y-119600000D01*
D60*
X222450000Y-91500000D02*
X222450000Y-93275000D01*
X225250000Y-79700000D02*
X227450000Y-79700000D01*
D58*
X184500000Y-101000000D02*
X184500000Y-99700000D01*
D59*
X166374300Y-75132400D02*
X167617600Y-75132400D01*
D58*
X185962500Y-113662500D02*
X186486800Y-114186800D01*
D59*
X207150000Y-117000000D02*
X207100000Y-116950000D01*
X207350000Y-95500000D02*
X208900000Y-95500000D01*
X216640000Y-84400000D02*
X218650000Y-84400000D01*
D61*
X211250000Y-76420000D02*
X208480000Y-76420000D01*
D62*
X173250000Y-113750000D02*
X173250000Y-114687500D01*
X176187500Y-115687500D02*
X174250000Y-115687500D01*
D60*
X180760200Y-93739800D02*
X180750000Y-93750000D01*
D59*
X211250000Y-93700000D02*
X211250000Y-95150000D01*
D62*
X175200000Y-119750000D02*
X176700000Y-119750000D01*
D57*
X185412500Y-84750000D02*
X186850000Y-84750000D01*
D58*
X189523250Y-113842800D02*
X189523250Y-111482500D01*
D57*
X172874300Y-73082400D02*
X171717600Y-73082400D01*
D60*
X222450000Y-93275000D02*
X222875000Y-93700000D01*
D59*
X232450000Y-95500000D02*
X234450000Y-95500000D01*
D57*
X188000000Y-92062500D02*
X188700000Y-91362500D01*
D59*
X168415800Y-74334200D02*
X168450000Y-74300000D01*
X167617600Y-75132400D02*
X168415800Y-74334200D01*
D57*
X195550000Y-72042400D02*
X195550000Y-71500000D01*
D59*
X207350000Y-117000000D02*
X208450000Y-117000000D01*
D58*
X193252200Y-73890200D02*
X192590200Y-73890200D01*
X185500000Y-98700000D02*
X185500000Y-97900000D01*
X182453250Y-110332500D02*
X183253250Y-110332500D01*
D60*
X190000000Y-103440000D02*
X190690000Y-102750000D01*
D58*
X180983250Y-113944400D02*
X180983250Y-111482500D01*
D59*
X167690000Y-67110000D02*
X166850000Y-67950000D01*
D60*
X228450000Y-79700000D02*
X228900000Y-79250000D01*
D57*
X191202200Y-74540200D02*
X191202200Y-75147800D01*
D60*
X225250000Y-77500000D02*
X227450000Y-77500000D01*
X181000000Y-93500000D02*
X180760200Y-93739800D01*
X173677000Y-105977000D02*
X173650000Y-105950000D01*
D58*
X192777200Y-72590200D02*
X193252200Y-72590200D01*
X186750000Y-96650000D02*
X187050000Y-96650000D01*
D62*
X172312500Y-114687500D02*
X173250000Y-114687500D01*
D58*
X189523250Y-116212500D02*
X190537500Y-116212500D01*
X199615600Y-73465600D02*
X198600000Y-72450000D01*
X176674300Y-77082400D02*
X177624300Y-76132400D01*
D59*
X215375000Y-95125000D02*
X215350000Y-95150000D01*
D60*
X190000000Y-104089200D02*
X190000000Y-103440000D01*
D58*
X182453250Y-109132500D02*
X182503250Y-109082500D01*
X180983250Y-116212500D02*
X180983250Y-113944400D01*
D60*
X225250000Y-78600000D02*
X227450000Y-78600000D01*
D58*
X185250000Y-103362500D02*
X185250000Y-102400000D01*
X192300000Y-73067400D02*
X192777200Y-72590200D01*
D60*
X190000000Y-105300000D02*
X190000000Y-104089200D01*
X227450000Y-77500000D02*
X228350000Y-77500000D01*
D57*
X174774300Y-71082400D02*
X174774300Y-70224300D01*
D59*
X234650000Y-117000000D02*
X235350000Y-117000000D01*
D58*
X188567500Y-109082500D02*
X189000000Y-108650000D01*
X185812500Y-116762500D02*
X186366200Y-117316200D01*
D60*
X166430000Y-107837500D02*
X166475000Y-107882500D01*
D57*
X188053250Y-109132500D02*
X188003250Y-109082500D01*
D58*
X177624300Y-76132400D02*
X177624300Y-76098400D01*
D62*
X173250000Y-114687500D02*
X174250000Y-115687500D01*
D58*
X188003250Y-109082500D02*
X188003250Y-108746750D01*
D57*
X204200000Y-118828300D02*
X204200000Y-119700000D01*
X203807600Y-115492400D02*
X203800000Y-115500000D01*
D59*
X215190000Y-90750000D02*
X215190000Y-93515000D01*
D62*
X176700000Y-119750000D02*
X176800000Y-119650000D01*
D60*
X228350000Y-77500000D02*
X229000000Y-78150000D01*
D58*
X190537500Y-116212500D02*
X190738400Y-116011600D01*
D59*
X207350000Y-117000000D02*
X207150000Y-117000000D01*
X181950800Y-67549200D02*
X181950000Y-67550000D01*
D58*
X184750000Y-99450000D02*
X185500000Y-98700000D01*
X175867600Y-68832400D02*
X175450000Y-69250000D01*
D57*
X171717600Y-73082400D02*
X171550000Y-73250000D01*
D60*
X181000000Y-92250000D02*
X181000000Y-93500000D01*
D59*
X208480000Y-76420000D02*
X208450000Y-76450000D01*
D57*
X197337500Y-87795000D02*
X197337500Y-88962500D01*
D59*
X232450000Y-95500000D02*
X232175000Y-95500000D01*
D58*
X199971800Y-73465600D02*
X199615600Y-73465600D01*
D60*
X227450000Y-79700000D02*
X228450000Y-79700000D01*
D58*
X182432500Y-109082500D02*
X181600000Y-108250000D01*
D60*
X174500000Y-107837500D02*
X174500000Y-106800000D01*
D59*
X215190000Y-93515000D02*
X215375000Y-93700000D01*
D60*
X191185000Y-101015000D02*
X192700000Y-99500000D01*
D58*
X192590200Y-73890200D02*
X192300000Y-73600000D01*
D60*
X226350000Y-77500000D02*
X226350000Y-79700000D01*
D58*
X188003250Y-109082500D02*
X188567500Y-109082500D01*
D59*
X209000000Y-95400000D02*
X208900000Y-95500000D01*
D61*
X211250000Y-76420000D02*
X212280000Y-76420000D01*
D60*
X227450000Y-77500000D02*
X227450000Y-79700000D01*
D58*
X192300000Y-73600000D02*
X192300000Y-73067400D01*
%TO.N,+3.3V*%
D60*
X194977200Y-75977200D02*
X195450000Y-76450000D01*
D58*
X186300000Y-100200000D02*
X186300000Y-100400000D01*
D60*
X172466000Y-89006000D02*
X172466000Y-83206000D01*
D61*
X214250000Y-72550000D02*
X216490000Y-72550000D01*
D60*
X192390200Y-74490200D02*
X192440200Y-74540200D01*
X193139700Y-69900800D02*
X193139700Y-68815200D01*
X191202200Y-73890200D02*
X191741672Y-73890200D01*
X186000000Y-88650000D02*
X186000000Y-87750000D01*
X176974300Y-72394900D02*
X178536800Y-70832400D01*
X191741672Y-73890200D02*
X192341672Y-74490200D01*
X194977200Y-74515200D02*
X194977200Y-75977200D01*
X227750000Y-89837500D02*
X227750000Y-89700000D01*
X179400000Y-85050000D02*
X178250000Y-86200000D01*
X186000000Y-87750000D02*
X185000000Y-86750000D01*
X197422500Y-85980000D02*
X197337500Y-85895000D01*
X206925000Y-83440000D02*
X206925000Y-80450000D01*
X206901400Y-83416400D02*
X206925000Y-83440000D01*
X193139700Y-68519700D02*
X191900800Y-67280800D01*
D61*
X211250000Y-73800000D02*
X209050000Y-73800000D01*
D60*
X193310000Y-102750000D02*
X195100000Y-102750000D01*
X181000000Y-90350000D02*
X181000000Y-89050000D01*
X192440200Y-74540200D02*
X193252200Y-74540200D01*
X199750000Y-85980000D02*
X197422500Y-85980000D01*
X183750000Y-90187500D02*
X183750000Y-89387500D01*
X219608400Y-90750000D02*
X219800000Y-90750000D01*
X179400000Y-85000000D02*
X179400000Y-85050000D01*
X194157600Y-116130700D02*
X194157600Y-114707600D01*
X195580000Y-85895000D02*
X195545000Y-85895000D01*
D61*
X211250000Y-73800000D02*
X212500000Y-72550000D01*
D60*
X205398800Y-75072100D02*
X206077900Y-75072100D01*
X174699300Y-75082400D02*
X175717600Y-75082400D01*
X195100000Y-102750000D02*
X196000000Y-103650000D01*
X193252200Y-74540200D02*
X193252200Y-75152200D01*
X180750000Y-102787500D02*
X180287500Y-103250000D01*
X183750000Y-89387500D02*
X182650000Y-88287500D01*
X220375000Y-92659200D02*
X220375000Y-91675000D01*
D58*
X186000000Y-100706800D02*
X186537600Y-101244400D01*
D60*
X193252200Y-75152200D02*
X193500000Y-75400000D01*
X164490000Y-85500000D02*
X163890000Y-86100000D01*
X178574300Y-70794900D02*
X178536800Y-70832400D01*
X193139700Y-68815200D02*
X193139700Y-68519700D01*
X191900800Y-67280800D02*
X190370000Y-65750000D01*
X197337500Y-85895000D02*
X195580000Y-85895000D01*
X193702200Y-73240200D02*
X194977200Y-74515200D01*
D58*
X186300000Y-100400000D02*
X186000000Y-100700000D01*
D60*
X206077900Y-75072100D02*
X208200000Y-72950000D01*
D61*
X209050000Y-73800000D02*
X208200000Y-72950000D01*
D60*
X217810000Y-90750000D02*
X219608400Y-90750000D01*
X164130000Y-88750000D02*
X162052000Y-88750000D01*
X206925000Y-84710000D02*
X206925000Y-83440000D01*
D61*
X212500000Y-72550000D02*
X214250000Y-72550000D01*
D58*
X186000000Y-100700000D02*
X186000000Y-100706800D01*
D60*
X162052000Y-88750000D02*
X162050000Y-88750000D01*
X193252200Y-73240200D02*
X193702200Y-73240200D01*
X178574300Y-68832400D02*
X178574300Y-70794900D01*
X181000000Y-89050000D02*
X180450000Y-88500000D01*
X227750000Y-89700000D02*
X226850000Y-88800000D01*
X176974300Y-72872400D02*
X176974300Y-72394900D01*
X180750000Y-102108000D02*
X180750000Y-102787500D01*
X193139700Y-70815200D02*
X193139700Y-69900800D01*
X219800000Y-90750000D02*
X220550000Y-91500000D01*
X177850000Y-65750000D02*
X177850000Y-68108100D01*
X220375000Y-91675000D02*
X220550000Y-91500000D01*
X163890000Y-86100000D02*
X162500000Y-86100000D01*
X195545000Y-85895000D02*
X195500000Y-85850000D01*
X220375000Y-93700000D02*
X220375000Y-92659200D01*
X177850000Y-68108100D02*
X178574300Y-68832400D01*
X199665000Y-85895000D02*
X199750000Y-85980000D01*
D61*
X216490000Y-72550000D02*
X216640000Y-72400000D01*
%TO.N,/ESP32-C3-02/EN*%
D58*
X205379800Y-115870200D02*
X205379800Y-116353500D01*
D63*
X201632600Y-117550700D02*
X201632600Y-117328922D01*
D58*
X223850000Y-84450000D02*
X226850000Y-87450000D01*
D63*
X204182600Y-117328922D02*
X204182600Y-117550700D01*
X203859378Y-117005700D02*
X204182600Y-117328922D01*
X194157600Y-117955700D02*
X193044300Y-117955700D01*
X200609200Y-116527300D02*
X201632600Y-117550700D01*
D58*
X223850000Y-74900000D02*
X223850000Y-84450000D01*
X205379800Y-116353500D02*
X204182600Y-117550700D01*
D63*
X201907600Y-114130700D02*
X201907600Y-116957478D01*
X200609200Y-116281200D02*
X200609200Y-116527300D01*
X197807600Y-107193200D02*
X197807600Y-105607600D01*
X201955822Y-117005700D02*
X203859378Y-117005700D01*
X201907600Y-116957478D02*
X201955822Y-117005700D01*
D58*
X222850000Y-73900000D02*
X223850000Y-74900000D01*
D63*
X200669300Y-114130700D02*
X200650000Y-114150000D01*
X201907600Y-114130700D02*
X200669300Y-114130700D01*
X193044300Y-117955700D02*
X191950000Y-119050000D01*
X197807600Y-105607600D02*
X197600000Y-105400000D01*
X201632600Y-117328922D02*
X201955822Y-117005700D01*
D58*
X216640000Y-73900000D02*
X222850000Y-73900000D01*
%TO.N,/ESP32-C3-02/SDA*%
D62*
X191314700Y-68815200D02*
X192200000Y-69700500D01*
X192200000Y-69700500D02*
X192200000Y-72450000D01*
X190827200Y-73240200D02*
X190156200Y-73911200D01*
X216640000Y-75400000D02*
X222900000Y-75400000D01*
X190156200Y-73911200D02*
X190156200Y-74156200D01*
X191409800Y-73240200D02*
X191202200Y-73240200D01*
X192200000Y-72450000D02*
X191409800Y-73240200D01*
X191202200Y-73240200D02*
X190827200Y-73240200D01*
X190895200Y-68815200D02*
X191314700Y-68815200D01*
X187830000Y-65750000D02*
X190895200Y-68815200D01*
%TO.N,/ESP32-C3-02/MIC_OUT*%
D59*
X212700000Y-78050000D02*
X213850000Y-76900000D01*
X181656700Y-71300000D02*
X183050000Y-71300000D01*
X180161800Y-74832400D02*
X180161800Y-72869900D01*
X192273744Y-76100000D02*
X194223744Y-78050000D01*
X187860000Y-76100000D02*
X192273744Y-76100000D01*
D57*
X180084300Y-72872400D02*
X180124300Y-72832400D01*
D59*
X178274300Y-72872400D02*
X180084300Y-72872400D01*
X214650000Y-76900000D02*
X216640000Y-76900000D01*
X194223744Y-78050000D02*
X212700000Y-78050000D01*
D57*
X180161800Y-72869900D02*
X180124300Y-72832400D01*
D59*
X180124300Y-72832400D02*
X181656700Y-71300000D01*
X213850000Y-76900000D02*
X214650000Y-76900000D01*
X183083200Y-71323200D02*
X187860000Y-76100000D01*
%TO.N,Net-(U2-IO6)*%
D62*
X212000000Y-79837500D02*
X213437500Y-78400000D01*
X213437500Y-78400000D02*
X216640000Y-78400000D01*
%TO.N,Net-(U2-IO7)*%
X214250000Y-79925000D02*
X216615000Y-79925000D01*
X216615000Y-79925000D02*
X216640000Y-79900000D01*
%TO.N,/ESP32-C3-02/GPIO8*%
D58*
X175310000Y-67190000D02*
X174150000Y-68350000D01*
X175310000Y-65750000D02*
X175310000Y-67190000D01*
X219000000Y-81350000D02*
X216690000Y-81350000D01*
X184100000Y-77819000D02*
X187631000Y-81350000D01*
X216690000Y-81350000D02*
X216640000Y-81400000D01*
X187631000Y-81350000D02*
X202500000Y-81350000D01*
X184100000Y-75900000D02*
X184100000Y-77819000D01*
%TO.N,/ESP32-C3-02/BOOT*%
X220415600Y-82900000D02*
X216640000Y-82900000D01*
X225348800Y-87833200D02*
X220415600Y-82900000D01*
D63*
X199068678Y-117000000D02*
X199407600Y-117338922D01*
X203194300Y-109005700D02*
X199300000Y-112900000D01*
X197196522Y-117000000D02*
X199068678Y-117000000D01*
X196857600Y-117560700D02*
X196857600Y-114230700D01*
X196857600Y-117560700D02*
X196857600Y-117338922D01*
X203507600Y-109005700D02*
X203194300Y-109005700D01*
X196857600Y-117338922D02*
X197196522Y-117000000D01*
X199407600Y-117338922D02*
X199407600Y-117560700D01*
X203507600Y-109005700D02*
X203507600Y-109907600D01*
X198188300Y-112900000D02*
X196957600Y-114130700D01*
X199300000Y-112900000D02*
X198188300Y-112900000D01*
X196857600Y-114230700D02*
X196957600Y-114130700D01*
X203507600Y-109907600D02*
X204000000Y-110400000D01*
%TO.N,/ESP32-C3-02/CS*%
D62*
X228466000Y-87750000D02*
X228450000Y-87750000D01*
X230250000Y-87750000D02*
X228466000Y-87750000D01*
X202400000Y-83950000D02*
X201890000Y-83440000D01*
X233600000Y-84400000D02*
X234140000Y-84400000D01*
X201890000Y-83440000D02*
X199750000Y-83440000D01*
X230250000Y-87750000D02*
X233600000Y-84400000D01*
%TO.N,/ESP32-C3-02/TX_RX*%
D63*
X182200000Y-99200000D02*
X181500000Y-98500000D01*
X230250000Y-82900000D02*
X234140000Y-82900000D01*
X229700000Y-82350000D02*
X230250000Y-82900000D01*
X183200000Y-99200000D02*
X182200000Y-99200000D01*
X181500000Y-98500000D02*
X180900000Y-98500000D01*
%TO.N,/ESP32-C3-02/RX_TX*%
X233940000Y-81600000D02*
X234140000Y-81400000D01*
X181650000Y-97700000D02*
X180750000Y-97700000D01*
X183200000Y-98700000D02*
X182650000Y-98700000D01*
X182650000Y-98700000D02*
X181650000Y-97700000D01*
X232100000Y-81600000D02*
X233940000Y-81600000D01*
%TO.N,/ESP32-C3-02/GPIO18*%
X232500000Y-79900000D02*
X231800000Y-80600000D01*
D58*
X168600000Y-71650000D02*
X168639000Y-71611000D01*
X168639000Y-71611000D02*
X172770000Y-67480000D01*
X172770000Y-67480000D02*
X172770000Y-65750000D01*
D63*
X234140000Y-79900000D02*
X232500000Y-79900000D01*
%TO.N,/ESP32-C3-02/GPIO19*%
X234140000Y-78400000D02*
X232650000Y-78400000D01*
D58*
X170230000Y-65750000D02*
X170230000Y-67470000D01*
X170230000Y-67470000D02*
X169500000Y-68200000D01*
D63*
X232650000Y-78400000D02*
X231700000Y-77450000D01*
%TO.N,/ESP32-C3-02/SCL*%
D62*
X190100000Y-72950000D02*
X190459800Y-72590200D01*
X185290000Y-65750000D02*
X185700000Y-65750000D01*
X234140000Y-76900000D02*
X233300000Y-76900000D01*
X185700000Y-65750000D02*
X190765200Y-70815200D01*
X190459800Y-72590200D02*
X191202200Y-72590200D01*
X191314700Y-72477700D02*
X191202200Y-72590200D01*
X233300000Y-76900000D02*
X230500000Y-74100000D01*
X190765200Y-70815200D02*
X191314700Y-70815200D01*
X191314700Y-70815200D02*
X191314700Y-72477700D01*
%TO.N,/ESP32-C3-02/MISO_DO*%
X233800000Y-98400000D02*
X236550000Y-95650000D01*
X235550000Y-75400000D02*
X234140000Y-75400000D01*
X236550000Y-76400000D02*
X235550000Y-75400000D01*
X204500000Y-92750000D02*
X204500000Y-96750000D01*
X204500000Y-92750000D02*
X204500000Y-89250000D01*
X206250000Y-89250000D02*
X204500000Y-89250000D01*
X204500000Y-96750000D02*
X206150000Y-98400000D01*
X236550000Y-95650000D02*
X236550000Y-76400000D01*
X206150000Y-98400000D02*
X233800000Y-98400000D01*
%TO.N,/ESP32-C3-02/PHOTO_C*%
D63*
X203481800Y-74015600D02*
X204630300Y-74015600D01*
X202950000Y-73483800D02*
X203481800Y-74015600D01*
X204630300Y-74015600D02*
X205398800Y-73247100D01*
X202950000Y-72150000D02*
X202950000Y-73483800D01*
X232800000Y-73900000D02*
X231700000Y-72800000D01*
X234140000Y-73900000D02*
X232800000Y-73900000D01*
%TO.N,/ESP32-C3-02/CS_SD*%
D62*
X227750000Y-91662500D02*
X227750000Y-93575000D01*
X234140000Y-72400000D02*
X235150000Y-72400000D01*
X235150000Y-72400000D02*
X237200000Y-74450000D01*
X235204000Y-88900000D02*
X235204000Y-90046000D01*
X237200000Y-87528400D02*
X237200000Y-87550000D01*
X237200000Y-74450000D02*
X237200000Y-87528400D01*
X233587500Y-91662500D02*
X234750000Y-90500000D01*
X235204000Y-90046000D02*
X234750000Y-90500000D01*
X227750000Y-91662500D02*
X233587500Y-91662500D01*
X227750000Y-93575000D02*
X227875000Y-93700000D01*
%TO.N,/CHARGED*%
D63*
X168500000Y-110000000D02*
X168500000Y-109662500D01*
X169950000Y-111450000D02*
X168500000Y-110000000D01*
X174250000Y-113100000D02*
X172600000Y-111450000D01*
X174250000Y-113750000D02*
X174250000Y-113100000D01*
X172600000Y-111450000D02*
X169950000Y-111450000D01*
%TO.N,Net-(D3-Pad1)*%
X166587500Y-105925000D02*
X168500000Y-107837500D01*
X164925000Y-105925000D02*
X166587500Y-105925000D01*
X163500000Y-104500000D02*
X164925000Y-105925000D01*
%TO.N,Net-(Q2-B)*%
X199950000Y-113300000D02*
X200383600Y-112866400D01*
X201471100Y-112866400D02*
X202337500Y-112000000D01*
X200383600Y-112866400D02*
X201471100Y-112866400D01*
X196857600Y-109068200D02*
X196857600Y-110292400D01*
%TO.N,/ESP32-C3-02/RTS*%
X198757600Y-109880700D02*
X196945100Y-111693200D01*
X182100000Y-97050000D02*
X181500000Y-97050000D01*
X183500000Y-98200000D02*
X183250000Y-98200000D01*
X183250000Y-98200000D02*
X182100000Y-97050000D01*
X198757600Y-109068200D02*
X198757600Y-109880700D01*
X199100000Y-102400000D02*
X199100000Y-105100000D01*
X199100000Y-105100000D02*
X198757600Y-105442400D01*
X198757600Y-105442400D02*
X198757600Y-109068200D01*
%TO.N,Net-(C21-Pad1)*%
D57*
X178536800Y-77119900D02*
X178574300Y-77082400D01*
X178536800Y-79082400D02*
X178536800Y-77119900D01*
%TO.N,Net-(C18-Pad2)*%
X172874300Y-71082400D02*
X173750000Y-71958100D01*
X172874300Y-75257400D02*
X174699300Y-77082400D01*
X173750000Y-74206700D02*
X172874300Y-75082400D01*
X172874300Y-75082400D02*
X172874300Y-75257400D01*
X173750000Y-71958100D02*
X173750000Y-74206700D01*
%TO.N,/ESP32-C3-02/SCLK*%
D62*
X207737499Y-85980000D02*
X207191756Y-85980000D01*
X212000000Y-83550000D02*
X212000000Y-81662500D01*
X207191756Y-85980000D02*
X207085303Y-85980000D01*
X212000000Y-81717499D02*
X207737499Y-85980000D01*
X217100000Y-93700000D02*
X216450000Y-93050000D01*
X212000000Y-81662500D02*
X212000000Y-81717499D01*
X207085303Y-85980000D02*
X206925000Y-85980000D01*
X216450000Y-88000000D02*
X212000000Y-83550000D01*
X217875000Y-93700000D02*
X217100000Y-93700000D01*
X216450000Y-93050000D02*
X216450000Y-88000000D01*
%TO.N,+5V*%
D64*
X171650000Y-104250000D02*
X170250000Y-102850000D01*
X174766000Y-91044000D02*
X173310000Y-92500000D01*
X178050000Y-117550000D02*
X178950000Y-116650000D01*
X178950000Y-116650000D02*
X178950000Y-107800000D01*
X170250000Y-99100000D02*
X172950000Y-96400000D01*
X174766000Y-89006000D02*
X174766000Y-91044000D01*
X175400000Y-104250000D02*
X171650000Y-104250000D01*
X173310000Y-92500000D02*
X173310000Y-95140000D01*
X172950000Y-96400000D02*
X172950000Y-95500000D01*
X170250000Y-102850000D02*
X170250000Y-99100000D01*
X173310000Y-95140000D02*
X172950000Y-95500000D01*
X178950000Y-107800000D02*
X175400000Y-104250000D01*
X176100000Y-117550000D02*
X178050000Y-117550000D01*
%TO.N,/+5V_USB*%
D62*
X174250000Y-118400000D02*
X174400000Y-118550000D01*
D63*
X167750000Y-102450000D02*
X167750000Y-102050000D01*
D62*
X176187500Y-115187500D02*
X176962500Y-115187500D01*
D63*
X163500000Y-102400000D02*
X164689600Y-102400000D01*
X168649200Y-101150800D02*
X168650000Y-101150000D01*
D62*
X173750000Y-119300000D02*
X173300000Y-119750000D01*
X176962500Y-115187500D02*
X177200000Y-114950000D01*
X174250000Y-117625000D02*
X174250000Y-118400000D01*
X172000000Y-119750000D02*
X171800000Y-119950000D01*
X173300000Y-119750000D02*
X172000000Y-119750000D01*
D63*
X164689600Y-102400000D02*
X166721600Y-102400000D01*
D62*
X174750000Y-117625000D02*
X174750000Y-118100000D01*
X173750000Y-117625000D02*
X173750000Y-119300000D01*
X176187500Y-116187500D02*
X177012500Y-116187500D01*
X174750000Y-118100000D02*
X175200000Y-118550000D01*
X177012500Y-116187500D02*
X177250000Y-115950000D01*
D63*
X166721600Y-102400000D02*
X167700000Y-102400000D01*
X167750000Y-102050000D02*
X168649200Y-101150800D01*
X167700000Y-102400000D02*
X167750000Y-102450000D01*
%TO.N,Net-(U1-THERM)*%
X174500000Y-110700000D02*
X176187500Y-112387500D01*
X176187500Y-112387500D02*
X176187500Y-114687500D01*
X174500000Y-109662500D02*
X174500000Y-110700000D01*
%TO.N,/CHARGING*%
X172500000Y-109662500D02*
X175250000Y-112412500D01*
X175250000Y-112412500D02*
X175250000Y-113750000D01*
%TO.N,/CHARGING_POWER_GOOD*%
X171200000Y-110800000D02*
X170500000Y-110100000D01*
X174750000Y-113750000D02*
X174750000Y-112800000D01*
X174750000Y-112800000D02*
X172750000Y-110800000D01*
X170500000Y-110100000D02*
X170500000Y-109662500D01*
X172750000Y-110800000D02*
X171200000Y-110800000D01*
%TO.N,Net-(U1-~{TE})*%
X172400000Y-111950000D02*
X168717500Y-111950000D01*
X173750000Y-113287760D02*
X172812240Y-112350000D01*
X168717500Y-111950000D02*
X166475000Y-109707500D01*
X173750000Y-113750000D02*
X173750000Y-113287760D01*
X172800000Y-112350000D02*
X172400000Y-111950000D01*
X172812240Y-112350000D02*
X172800000Y-112350000D01*
%TO.N,Net-(U1-PROG3)*%
X164500000Y-110700000D02*
X164847400Y-111047400D01*
X164500000Y-109662500D02*
X164500000Y-110700000D01*
X164847400Y-111047400D02*
X164850000Y-111050000D01*
X170992800Y-115163600D02*
X172288600Y-115163600D01*
X172288600Y-115163600D02*
X172312500Y-115187500D01*
%TO.N,Net-(U1-PROG1)*%
X171362500Y-115687500D02*
X172312500Y-115687500D01*
X162500000Y-109662500D02*
X162500000Y-110550000D01*
X162500000Y-110550000D02*
X163100000Y-111150000D01*
X170950000Y-116100000D02*
X171362500Y-115687500D01*
%TO.N,/VBAT*%
D58*
X167000000Y-117000000D02*
X171500000Y-117000000D01*
X171500000Y-117000000D02*
X172125000Y-117625000D01*
X172125000Y-117625000D02*
X173250000Y-117625000D01*
X173225000Y-117650000D02*
X173250000Y-117625000D01*
%TO.N,Net-(D7-Pad1)*%
D57*
X183750000Y-92287500D02*
X183750000Y-94337500D01*
%TO.N,Net-(U3-VBUS)*%
D63*
X182162500Y-105250000D02*
X182862500Y-104550000D01*
X190186396Y-98886396D02*
X190800000Y-99500000D01*
X188000000Y-94575000D02*
X188000000Y-98886396D01*
X188671200Y-98886396D02*
X190186396Y-98886396D01*
X188000000Y-98886396D02*
X188671200Y-98886396D01*
X182862500Y-104550000D02*
X187350000Y-104550000D01*
X187211396Y-99675000D02*
X186588172Y-99675000D01*
X188000000Y-98886396D02*
X187211396Y-99675000D01*
X187350000Y-104550000D02*
X188671200Y-103228800D01*
X188671200Y-103228800D02*
X188671200Y-98886396D01*
%TO.N,Net-(Q3-B)*%
X198920100Y-111693200D02*
X198770100Y-111693200D01*
X201607600Y-109005700D02*
X198920100Y-111693200D01*
%TO.N,/ESP32-C3-02/USB_D-*%
D62*
X185500000Y-101000000D02*
X185500000Y-101300000D01*
X185450000Y-101618749D02*
X186200000Y-102368749D01*
X186200000Y-102368749D02*
X186200000Y-103362500D01*
X185450000Y-101050000D02*
X185450000Y-101618749D01*
X185500000Y-101000000D02*
X185450000Y-101050000D01*
%TO.N,/ESP32-C3-02/USB_D+*%
X185000000Y-101000000D02*
X185050000Y-101050000D01*
X184300000Y-102368749D02*
X184300000Y-103362500D01*
X185050000Y-101618749D02*
X184300000Y-102368749D01*
X185050000Y-101050000D02*
X185050000Y-101618749D01*
%TO.N,/USB_DP*%
X185050000Y-107750000D02*
X185050000Y-107853072D01*
X185053250Y-108132499D02*
X185003250Y-108182499D01*
X184300000Y-107000000D02*
X185050000Y-107750000D01*
X184300000Y-105637500D02*
X184300000Y-107000000D01*
X185053250Y-107856322D02*
X185053250Y-108132499D01*
X185003250Y-108182499D02*
X185003250Y-109082500D01*
D58*
X183550000Y-105918000D02*
X184019500Y-105918000D01*
X184019500Y-105918000D02*
X184300000Y-105637500D01*
%TO.N,/VBUS*%
X187650000Y-107200000D02*
X187125200Y-107724800D01*
X186503250Y-108346750D02*
X186503250Y-109082500D01*
X187125200Y-107724800D02*
X186503250Y-108346750D01*
X184003250Y-110282500D02*
X184003250Y-109082500D01*
X185250000Y-106700000D02*
X185150000Y-106800000D01*
X185250000Y-105637500D02*
X185250000Y-106700000D01*
X180337500Y-105250000D02*
X178258348Y-103170848D01*
X178258348Y-103170848D02*
X178258348Y-102409358D01*
X186453250Y-110332500D02*
X186503250Y-110282500D01*
X184053250Y-110332500D02*
X184003250Y-110282500D01*
X186503250Y-110282500D02*
X186503250Y-109082500D01*
X184003250Y-108182500D02*
X183770750Y-107950000D01*
X184003250Y-109082500D02*
X184003250Y-108182500D01*
X190000000Y-107200000D02*
X187650000Y-107200000D01*
X183770750Y-107950000D02*
X183600000Y-107950000D01*
%TO.N,/USB_DN*%
D62*
X186200000Y-106950000D02*
X185450000Y-107700000D01*
X185453250Y-108132499D02*
X185503250Y-108182499D01*
D58*
X187200000Y-105900000D02*
X186462500Y-105900000D01*
D62*
X185450000Y-107700000D02*
X185453250Y-107703250D01*
D58*
X186462500Y-105900000D02*
X186200000Y-105637500D01*
D62*
X185503250Y-108182499D02*
X185503250Y-109082500D01*
X186200000Y-105637500D02*
X186200000Y-106950000D01*
X185453250Y-107703250D02*
X185453250Y-108132499D01*
%TO.N,Net-(J1-CC1)*%
D63*
X192800000Y-116500000D02*
X192800000Y-114600000D01*
X191625000Y-113425000D02*
X192800000Y-114600000D01*
X180050000Y-108200000D02*
X180050000Y-118700000D01*
X190100000Y-119200000D02*
X192800000Y-116500000D01*
X184503250Y-108010749D02*
X183742501Y-107250000D01*
X180550000Y-119200000D02*
X190100000Y-119200000D01*
X184503250Y-109082500D02*
X184503250Y-108010749D01*
X180050000Y-118700000D02*
X180550000Y-119200000D01*
X183742501Y-107250000D02*
X181000000Y-107250000D01*
X181000000Y-107250000D02*
X180050000Y-108200000D01*
X191500000Y-113425000D02*
X191625000Y-113425000D01*
%TO.N,Net-(J1-CC2)*%
X192600000Y-108575000D02*
X191500000Y-109675000D01*
X192600000Y-108300000D02*
X192600000Y-108575000D01*
%TO.N,/ESP32-C3-02/DTR*%
X205200000Y-111300000D02*
X204500000Y-112000000D01*
X204500000Y-112000000D02*
X204162500Y-112000000D01*
X184000000Y-97900000D02*
X183450000Y-97350000D01*
X202350000Y-104750000D02*
X202350000Y-106923100D01*
X205200000Y-108250000D02*
X205200000Y-111300000D01*
X202350000Y-106923100D02*
X202557600Y-107130700D01*
X183438800Y-97350000D02*
X183400000Y-97350000D01*
X183450000Y-97350000D02*
X183438800Y-97350000D01*
X204080700Y-107130700D02*
X205200000Y-108250000D01*
X202557600Y-107130700D02*
X204080700Y-107130700D01*
%TO.N,Net-(U3-~{RST})*%
X186425000Y-99200000D02*
X186450000Y-99175000D01*
X187075000Y-98550000D02*
X187425000Y-98200000D01*
X186300000Y-99200000D02*
X186425000Y-99200000D01*
X186450000Y-99175000D02*
X187075000Y-99175000D01*
X187075000Y-99175000D02*
X187075000Y-98550000D01*
X182118000Y-103244500D02*
X182112500Y-103250000D01*
X182118000Y-101300000D02*
X182118000Y-103244500D01*
%TO.N,Net-(U3-~{RXT}{slash}GPIO.3)*%
X185950000Y-95750000D02*
X185700000Y-96000000D01*
X181600000Y-99700000D02*
X181200000Y-99300000D01*
X183200000Y-99700000D02*
X181600000Y-99700000D01*
X185950000Y-94575000D02*
X185950000Y-95750000D01*
%TO.N,Net-(U3-~{TXT}{slash}GPIO.2)*%
X180600000Y-100200000D02*
X179650000Y-99250000D01*
X180687500Y-96162500D02*
X183750000Y-96162500D01*
X179650000Y-97200000D02*
X180687500Y-96162500D01*
X179650000Y-99250000D02*
X179650000Y-97200000D01*
X183200000Y-100200000D02*
X180600000Y-100200000D01*
%TO.N,Net-(D8-Pad-)*%
D57*
X186000000Y-92700000D02*
X185950000Y-92750000D01*
X186000000Y-90750000D02*
X186000000Y-92700000D01*
%TO.N,Net-(U7-IN-)*%
X179750000Y-80550000D02*
X178179400Y-80550000D01*
X181986800Y-72869900D02*
X182024300Y-72832400D01*
X181986800Y-74832400D02*
X181986800Y-72869900D01*
X179341300Y-75859400D02*
X179781200Y-75859400D01*
X178179400Y-80550000D02*
X176711800Y-79082400D01*
X178274300Y-74792400D02*
X179341300Y-75859400D01*
X180441600Y-75859400D02*
X180441600Y-79858400D01*
X180959800Y-75859400D02*
X181986800Y-74832400D01*
X180441600Y-79858400D02*
X179750000Y-80550000D01*
X179781200Y-75859400D02*
X180959800Y-75859400D01*
%TO.N,Net-(D5-Pad-)*%
D63*
X165750000Y-104500000D02*
X166725000Y-105475000D01*
X166725000Y-105475000D02*
X168137500Y-105475000D01*
X168137500Y-105475000D02*
X170500000Y-107837500D01*
%TO.N,/PWD_LED*%
D57*
X183337500Y-85000000D02*
X183587500Y-84750000D01*
X181500000Y-85000000D02*
X183337500Y-85000000D01*
%TO.N,/ESP32-C3-02/MOSI_DI*%
D62*
X225375000Y-89925000D02*
X225375000Y-93700000D01*
X206850000Y-97750000D02*
X223600000Y-97750000D01*
X207150000Y-87475000D02*
X207150000Y-92500000D01*
X214250000Y-81750000D02*
X214250000Y-83810000D01*
X214250000Y-83810000D02*
X218440000Y-88000000D01*
X225375000Y-95975000D02*
X225375000Y-93700000D01*
X223600000Y-97750000D02*
X225375000Y-95975000D01*
X205500000Y-94150000D02*
X205500000Y-96400000D01*
X206925000Y-87250000D02*
X207150000Y-87475000D01*
X223450000Y-88000000D02*
X225375000Y-89925000D01*
X218440000Y-88000000D02*
X223450000Y-88000000D01*
X207150000Y-92500000D02*
X205500000Y-94150000D01*
X205500000Y-96400000D02*
X206850000Y-97750000D01*
%TO.N,Net-(C22-Pad1)*%
D57*
X172811800Y-79087400D02*
X172811800Y-77144900D01*
X172824300Y-77032400D02*
X172874300Y-77082400D01*
X166374300Y-77032400D02*
X172824300Y-77032400D01*
X172811800Y-77144900D02*
X172874300Y-77082400D01*
%TO.N,Net-(U5-DO{slash}IO_{1})*%
D62*
X202675000Y-89250000D02*
X202675000Y-86822501D01*
X202675000Y-86822501D02*
X200562499Y-84710000D01*
X200562499Y-84710000D02*
X199750000Y-84710000D01*
%TO.N,Net-(J3-DAT0)*%
X208075000Y-89250000D02*
X210200000Y-89250000D01*
X210200000Y-89250000D02*
X212950000Y-92000000D01*
X212950000Y-92000000D02*
X212950000Y-93700000D01*
%TO.N,Net-(D6-Pad-)*%
D63*
X167750000Y-104550000D02*
X169212500Y-104550000D01*
X169212500Y-104550000D02*
X172500000Y-107837500D01*
%TD*%
%TA.AperFunction,Conductor*%
%TO.N,/+5V_USB*%
G36*
X174648219Y-99470398D02*
G01*
X174663274Y-99474612D01*
X174678404Y-99484067D01*
X174695582Y-99488880D01*
X174722498Y-99511622D01*
X174722522Y-99511637D01*
X174722538Y-99511656D01*
X174722541Y-99511659D01*
X174723410Y-99512637D01*
X174751746Y-99568024D01*
X174753616Y-99576414D01*
X174756586Y-99603699D01*
X174751840Y-101510698D01*
X174747864Y-103107982D01*
X174747864Y-103107983D01*
X174742753Y-103142905D01*
X174738312Y-103157891D01*
X174700391Y-103216575D01*
X174700375Y-103216589D01*
X174698942Y-103217824D01*
X174644208Y-103245091D01*
X174636784Y-103246697D01*
X174610566Y-103249500D01*
X174316981Y-103249500D01*
X174315344Y-103249489D01*
X174313668Y-103249466D01*
X174313604Y-103249466D01*
X174312001Y-103249433D01*
X172070386Y-103189996D01*
X172035597Y-103184049D01*
X172009981Y-103175784D01*
X171960376Y-103145456D01*
X171643761Y-102828841D01*
X171622610Y-102800587D01*
X171609867Y-102777250D01*
X171594709Y-102719390D01*
X171555873Y-99646291D01*
X171560454Y-99611299D01*
X171564668Y-99596246D01*
X171601693Y-99536999D01*
X171603076Y-99535769D01*
X171657535Y-99507650D01*
X171665080Y-99505909D01*
X171691394Y-99502742D01*
X174613228Y-99465818D01*
X174648219Y-99470398D01*
G37*
%TD.AperFunction*%
%TD*%
%TA.AperFunction,Conductor*%
%TO.N,GND*%
G36*
X168443039Y-84519685D02*
G01*
X168488794Y-84572489D01*
X168500000Y-84624000D01*
X168500000Y-87000000D01*
X171376000Y-87000000D01*
X171443039Y-87019685D01*
X171488794Y-87072489D01*
X171500000Y-87124000D01*
X171500000Y-91500000D01*
X171876000Y-91500000D01*
X171943039Y-91519685D01*
X171988794Y-91572489D01*
X172000000Y-91624000D01*
X172000000Y-96307981D01*
X171980315Y-96375020D01*
X171963681Y-96395662D01*
X171723262Y-96636081D01*
X171661939Y-96669566D01*
X171635581Y-96672400D01*
X169124000Y-96672400D01*
X169056961Y-96652715D01*
X169011206Y-96599911D01*
X169000000Y-96548400D01*
X169000000Y-95500000D01*
X167624000Y-95500000D01*
X167556961Y-95480315D01*
X167511206Y-95427511D01*
X167500000Y-95376000D01*
X167500000Y-91500000D01*
X165564000Y-91500000D01*
X165496961Y-91480315D01*
X165451206Y-91427511D01*
X165440000Y-91376000D01*
X165440000Y-84624000D01*
X165459685Y-84556961D01*
X165512489Y-84511206D01*
X165564000Y-84500000D01*
X168376000Y-84500000D01*
X168443039Y-84519685D01*
G37*
%TD.AperFunction*%
%TD*%
%TA.AperFunction,Conductor*%
%TO.N,+5V*%
G36*
X176625439Y-116532684D02*
G01*
X176671194Y-116585488D01*
X176682400Y-116636999D01*
X176682400Y-117986000D01*
X176662715Y-118053039D01*
X176609911Y-118098794D01*
X176558400Y-118110000D01*
X175314820Y-118110000D01*
X175300289Y-118109146D01*
X175291388Y-118108095D01*
X175259309Y-118099500D01*
X175218540Y-118099500D01*
X175211302Y-118098646D01*
X175185597Y-118087685D01*
X175158794Y-118079815D01*
X175149415Y-118072257D01*
X175147032Y-118071241D01*
X175145675Y-118069243D01*
X175138152Y-118063181D01*
X175111818Y-118036847D01*
X175078333Y-117975524D01*
X175075499Y-117949166D01*
X175075499Y-117262000D01*
X175095184Y-117194961D01*
X175147988Y-117149206D01*
X175199499Y-117138000D01*
X175519750Y-117138000D01*
X175519751Y-117137999D01*
X175578231Y-117126367D01*
X175590753Y-117118000D01*
X175649322Y-117118000D01*
X175649322Y-117074913D01*
X175688867Y-117015731D01*
X175700500Y-116957248D01*
X175700500Y-116636999D01*
X175720185Y-116569960D01*
X175772989Y-116524205D01*
X175824495Y-116512999D01*
X176558400Y-116512999D01*
X176625439Y-116532684D01*
G37*
%TD.AperFunction*%
%TD*%
%TA.AperFunction,Conductor*%
%TO.N,/VBAT*%
G36*
X172742474Y-116032684D02*
G01*
X172788229Y-116085488D01*
X172799408Y-116134420D01*
X172799473Y-116137544D01*
X172799500Y-116140123D01*
X172799500Y-116957252D01*
X172813515Y-117027710D01*
X172812758Y-117027860D01*
X172818682Y-117056094D01*
X172821599Y-117195599D01*
X172821600Y-117195600D01*
X173300500Y-117195600D01*
X173367539Y-117215285D01*
X173413294Y-117268089D01*
X173424500Y-117319600D01*
X173424500Y-118000898D01*
X173428818Y-118022603D01*
X173431200Y-118046793D01*
X173431200Y-118376000D01*
X173411515Y-118443039D01*
X173358711Y-118488794D01*
X173307200Y-118500000D01*
X171624040Y-118500000D01*
X171557001Y-118480315D01*
X171511246Y-118427511D01*
X171500040Y-118375960D01*
X171500760Y-116148591D01*
X171520466Y-116081561D01*
X171573285Y-116035823D01*
X171622163Y-116024662D01*
X172160950Y-116013394D01*
X172178540Y-116013027D01*
X172181131Y-116013000D01*
X172355353Y-116013000D01*
X172355354Y-116012999D01*
X172369794Y-116012999D01*
X172675435Y-116012999D01*
X172742474Y-116032684D01*
G37*
%TD.AperFunction*%
%TD*%
%TA.AperFunction,Conductor*%
%TO.N,GND*%
G36*
X173117283Y-113166242D02*
G01*
X173184241Y-113186189D01*
X173204472Y-113202559D01*
X173388181Y-113386268D01*
X173421666Y-113447591D01*
X173424500Y-113473949D01*
X173424500Y-114125900D01*
X173424501Y-114125904D01*
X173429654Y-114151809D01*
X173423427Y-114221401D01*
X173380563Y-114276578D01*
X173314674Y-114299822D01*
X173308037Y-114300000D01*
X172770800Y-114300000D01*
X172770800Y-114738000D01*
X172768249Y-114746685D01*
X172769538Y-114755647D01*
X172758559Y-114779687D01*
X172751115Y-114805039D01*
X172744274Y-114810966D01*
X172740513Y-114819203D01*
X172718278Y-114833492D01*
X172698311Y-114850794D01*
X172687796Y-114853081D01*
X172681735Y-114856977D01*
X172646800Y-114862000D01*
X172436976Y-114862000D01*
X172404884Y-114857775D01*
X172331454Y-114838100D01*
X172331453Y-114838100D01*
X171930327Y-114838100D01*
X171863288Y-114818415D01*
X171817533Y-114765611D01*
X171806328Y-114713611D01*
X171808267Y-114221401D01*
X171811956Y-113285097D01*
X171831904Y-113218138D01*
X171884888Y-113172592D01*
X171936441Y-113161589D01*
X173117283Y-113166242D01*
G37*
%TD.AperFunction*%
%TD*%
%TA.AperFunction,Conductor*%
%TO.N,+3.3V*%
G36*
X177633195Y-80518070D02*
G01*
X177662509Y-80526739D01*
X177692379Y-80533237D01*
X177697536Y-80537097D01*
X177700192Y-80537883D01*
X177720633Y-80554388D01*
X177847494Y-80681249D01*
X177880979Y-80742572D01*
X177875995Y-80812264D01*
X177870217Y-80825384D01*
X175876030Y-84725300D01*
X175827982Y-84776027D01*
X175764063Y-84792836D01*
X169904771Y-84718969D01*
X169837985Y-84698441D01*
X169793542Y-84646495D01*
X168904851Y-82700750D01*
X167979710Y-80675201D01*
X167969764Y-80606044D01*
X167998787Y-80542487D01*
X168057563Y-80504710D01*
X168092737Y-80499686D01*
X177633195Y-80518070D01*
G37*
%TD.AperFunction*%
%TD*%
%TA.AperFunction,Conductor*%
%TO.N,GND*%
G36*
X164943039Y-117265685D02*
G01*
X164988794Y-117318489D01*
X165000000Y-117370000D01*
X165000000Y-120376000D01*
X164980315Y-120443039D01*
X164927511Y-120488794D01*
X164876000Y-120500000D01*
X162624000Y-120500000D01*
X162556961Y-120480315D01*
X162511206Y-120427511D01*
X162500000Y-120376000D01*
X162500000Y-117370000D01*
X162519685Y-117302961D01*
X162572489Y-117257206D01*
X162624000Y-117246000D01*
X164876000Y-117246000D01*
X164943039Y-117265685D01*
G37*
%TD.AperFunction*%
%TD*%
%TA.AperFunction,Conductor*%
%TO.N,/VBUS*%
G36*
X178663387Y-99717043D02*
G01*
X178709142Y-99769847D01*
X178720348Y-99821358D01*
X178720348Y-103073358D01*
X178700663Y-103140397D01*
X178647859Y-103186152D01*
X178596348Y-103197358D01*
X175844348Y-103197358D01*
X175777309Y-103177673D01*
X175731554Y-103124869D01*
X175720348Y-103073358D01*
X175720348Y-99821358D01*
X175740033Y-99754319D01*
X175792837Y-99708564D01*
X175844348Y-99697358D01*
X178596348Y-99697358D01*
X178663387Y-99717043D01*
G37*
%TD.AperFunction*%
%TD*%
M02*
