%TF.GenerationSoftware,KiCad,Pcbnew,10.0.3*%
%TF.CreationDate,2026-06-17T12:40:10+05:30*%
%TF.ProjectId,IOT,494f542e-6b69-4636-9164-5f7063625858,rev?*%
%TF.SameCoordinates,Original*%
%TF.FileFunction,Copper,L4,Bot*%
%TF.FilePolarity,Positive*%
%FSLAX46Y46*%
G04 Gerber Fmt 4.6, Leading zero omitted, Abs format (unit mm)*
G04 Created by KiCad (PCBNEW 10.0.3) date 2026-06-17 12:40:10*
%MOMM*%
%LPD*%
G01*
G04 APERTURE LIST*
%TA.AperFunction,ComponentPad*%
%ADD10C,0.400000*%
%TD*%
%TA.AperFunction,ComponentPad*%
%ADD11R,1.700000X1.700000*%
%TD*%
%TA.AperFunction,ComponentPad*%
%ADD12C,1.700000*%
%TD*%
%TA.AperFunction,ComponentPad*%
%ADD13C,0.650000*%
%TD*%
%TA.AperFunction,ComponentPad*%
%ADD14O,1.050000X2.100000*%
%TD*%
%TA.AperFunction,ComponentPad*%
%ADD15C,1.208000*%
%TD*%
%TA.AperFunction,ViaPad*%
%ADD16C,0.500000*%
%TD*%
%TA.AperFunction,ViaPad*%
%ADD17C,0.600000*%
%TD*%
%TA.AperFunction,Conductor*%
%ADD18C,0.250000*%
%TD*%
%TA.AperFunction,Conductor*%
%ADD19C,0.300000*%
%TD*%
%TA.AperFunction,Conductor*%
%ADD20C,0.200000*%
%TD*%
G04 APERTURE END LIST*
D10*
%TO.P,U2,28,GND_28*%
%TO.N,GND*%
X225800000Y-77500000D03*
%TO.P,U2,29,GND_29*%
X226900000Y-77500000D03*
%TO.P,U2,30,GND_30*%
X225250000Y-78050000D03*
%TO.P,U2,31,GND_31*%
X226350000Y-78050000D03*
%TO.P,U2,32,GND_32*%
X227450000Y-78050000D03*
%TO.P,U2,33,GND_33*%
X225800000Y-78600000D03*
%TO.P,U2,34,GND_34*%
X226900000Y-78600000D03*
%TO.P,U2,35,GND_35*%
X225250000Y-79150000D03*
%TO.P,U2,36,GND_36*%
X226350000Y-79150000D03*
%TO.P,U2,37,GND_37*%
X227450000Y-79150000D03*
%TO.P,U2,38,GND_38*%
X225800000Y-79700000D03*
%TO.P,U2,39,GND_39*%
X226900000Y-79700000D03*
%TD*%
D11*
%TO.P,J5,1,Pin_1_1*%
%TO.N,+3.3V*%
X177850000Y-65750000D03*
D12*
%TO.P,J5,2,Pin_2_2*%
%TO.N,/ESP32-C3-02/GPIO8*%
X175310000Y-65750000D03*
%TO.P,J5,3,Pin_3_3*%
%TO.N,/ESP32-C3-02/GPIO18*%
X172770000Y-65750000D03*
%TO.P,J5,4,Pin_4_4*%
%TO.N,/ESP32-C3-02/GPIO19*%
X170230000Y-65750000D03*
%TO.P,J5,5,Pin_5_5*%
%TO.N,GND*%
X167690000Y-65750000D03*
%TD*%
D13*
%TO.P,J1,B1,GNDB1_B1*%
%TO.N,GND*%
X188053250Y-110332500D03*
%TO.P,J1,B2,SSTXP2_B2*%
%TO.N,unconnected-(J1-SSTXP2-PadB2)*%
X187653250Y-111042500D03*
%TO.P,J1,B3,SSTXN2_B3*%
%TO.N,unconnected-(J1-SSTXN2-PadB3)*%
X186853250Y-111042500D03*
%TO.P,J1,B4,VBUSB1_B4*%
%TO.N,/VBUS*%
X186453250Y-110332500D03*
%TO.P,J1,B5,CC2_B5*%
%TO.N,Net-(J1-CC2)*%
X186053250Y-111042500D03*
%TO.P,J1,B6,DP2_B6*%
%TO.N,/USB_DP*%
X185653250Y-110332500D03*
%TO.P,J1,B7,DN2_B7*%
%TO.N,/USB_DN*%
X184853250Y-110332500D03*
%TO.P,J1,B8,SBU2_B8*%
%TO.N,unconnected-(J1-SBU2-PadB8)*%
X184453250Y-111042500D03*
%TO.P,J1,B9,VBUSB2_B9*%
%TO.N,/VBUS*%
X184053250Y-110332500D03*
%TO.P,J1,B10,SSRXN1_B10*%
%TO.N,unconnected-(J1-SSRXN1-PadB10)*%
X183653250Y-111042500D03*
%TO.P,J1,B11,SSRXP1_B11*%
%TO.N,unconnected-(J1-SSRXP1-PadB11)*%
X182853250Y-111042500D03*
%TO.P,J1,B12,GNDB2_B12*%
%TO.N,GND*%
X182453250Y-110332500D03*
%TO.P,J1,G1,GND/SHIELD_G1*%
X187253250Y-110332500D03*
%TO.P,J1,G2,GND/SHIELD_G2*%
X183253250Y-110332500D03*
D14*
%TO.P,J1,S1,GND/SHIELD_S1*%
X180983250Y-111482500D03*
%TO.P,J1,S2,GND/SHIELD_S2*%
X189523250Y-111482500D03*
%TO.P,J1,S3,GND/SHIELD_S3*%
X180983250Y-116212500D03*
%TO.P,J1,S4,GND/SHIELD_S4*%
X189523250Y-116212500D03*
%TD*%
D11*
%TO.P,J4,1,Pin_1_1*%
%TO.N,+3.3V*%
X190370000Y-65750000D03*
D12*
%TO.P,J4,2,Pin_2_2*%
%TO.N,/ESP32-C3-02/SDA*%
X187830000Y-65750000D03*
%TO.P,J4,3,Pin_3_3*%
%TO.N,/ESP32-C3-02/SCL*%
X185290000Y-65750000D03*
%TO.P,J4,4,Pin_4_4*%
%TO.N,GND*%
X182750000Y-65750000D03*
%TD*%
D15*
%TO.P,MK1,GND*%
%TO.N,GND*%
X166374300Y-75132400D03*
%TO.P,MK1,OUT*%
%TO.N,Net-(C22-Pad1)*%
X166374300Y-77032400D03*
%TD*%
D16*
%TO.N,GND*%
X190950000Y-75400000D03*
D17*
X208432400Y-76454000D03*
D16*
X166319200Y-90881200D03*
X166827200Y-67919600D03*
X190738400Y-116011600D03*
X198831200Y-115570000D03*
X215341200Y-95148400D03*
X174244000Y-69697600D03*
D17*
X173677000Y-105977000D03*
D16*
X180760200Y-93739800D03*
X209143600Y-116332000D03*
X186990800Y-84890800D03*
X198600000Y-72450000D03*
X168198800Y-92151200D03*
X168415800Y-74334200D03*
X187045600Y-96621600D03*
X189523250Y-113842800D03*
X168198800Y-93624400D03*
X236423200Y-115925600D03*
X171551600Y-73253600D03*
X177624300Y-76098400D03*
X181600000Y-108250000D03*
X165482000Y-107837500D03*
X211250000Y-95150000D03*
X175463200Y-69291200D03*
X190500000Y-111482500D03*
X180983250Y-113944400D03*
X185267600Y-102412800D03*
X196850000Y-119583200D03*
X191185000Y-101015000D03*
D17*
X228904800Y-79248000D03*
D16*
X219000000Y-84050000D03*
X163500800Y-107837500D03*
X234492800Y-95504000D03*
X195550000Y-71500000D03*
X199400000Y-119583200D03*
X197104000Y-89154000D03*
X186366200Y-117316200D03*
X188700000Y-91362500D03*
X176800000Y-119650000D03*
X189000000Y-108650000D03*
X186486800Y-114186800D03*
X172250000Y-113650000D03*
X167995600Y-90932000D03*
X204200000Y-119697350D03*
X169570400Y-94996000D03*
X169621200Y-96266000D03*
X222850000Y-95250000D03*
X203807600Y-115492400D03*
X163576000Y-117856000D03*
X181950800Y-67549200D03*
X163576000Y-118618000D03*
X201650000Y-119697350D03*
X168300400Y-94843600D03*
X163576000Y-119380000D03*
X190000000Y-104089200D03*
D17*
X229000000Y-78150000D03*
D16*
X208991200Y-95402400D03*
%TO.N,+3.3V*%
X194157600Y-114707600D03*
D17*
X208200000Y-72950000D03*
D16*
X174193200Y-81229200D03*
X182650000Y-88287500D03*
X191900800Y-67280800D03*
X219608400Y-90750000D03*
X170459400Y-81229200D03*
X175437800Y-81229200D03*
X195580000Y-85895000D03*
X176682400Y-81229200D03*
X162052000Y-88750000D03*
X226872800Y-88798400D03*
X193500000Y-75400000D03*
X172948600Y-81229200D03*
D17*
X206908400Y-80467200D03*
D16*
X162500000Y-86100000D03*
D17*
X180750000Y-102108000D03*
D16*
X175717600Y-75082400D03*
X171704000Y-81229200D03*
X195450000Y-76450000D03*
X220375000Y-92659200D03*
D17*
X196000000Y-103650000D03*
D16*
X193139700Y-69900800D03*
X169214800Y-81229200D03*
X178250000Y-86200000D03*
X186537600Y-101244400D03*
X185000000Y-86750000D03*
D17*
X180450000Y-88500000D03*
D16*
%TO.N,/ESP32-C3-02/EN*%
X197600000Y-105400000D03*
X205379800Y-115870200D03*
X200609200Y-114147600D03*
X191922400Y-119075200D03*
X200609200Y-116281200D03*
X226850000Y-87450000D03*
%TO.N,/ESP32-C3-02/SDA*%
X222900000Y-75400000D03*
X190156200Y-74156200D03*
%TO.N,/ESP32-C3-02/GPIO8*%
X184100000Y-75900000D03*
X202500000Y-81350000D03*
X174142400Y-68376800D03*
X219000000Y-81350000D03*
%TO.N,/ESP32-C3-02/BOOT*%
X204000000Y-110400000D03*
X225348800Y-87833200D03*
%TO.N,/ESP32-C3-02/CS*%
X228466000Y-87750000D03*
X202400000Y-83950000D03*
%TO.N,/ESP32-C3-02/TX_RX*%
X180898800Y-98501200D03*
X229700000Y-82350000D03*
%TO.N,/ESP32-C3-02/RX_TX*%
X180746400Y-97688400D03*
X232100000Y-81600000D03*
%TO.N,/ESP32-C3-02/GPIO18*%
X168639000Y-71611000D03*
X231800000Y-80600000D03*
%TO.N,/ESP32-C3-02/GPIO19*%
X231700000Y-77450000D03*
X169468800Y-68376800D03*
%TO.N,/ESP32-C3-02/SCL*%
X230500000Y-74100000D03*
X190100000Y-72950000D03*
%TO.N,/ESP32-C3-02/PHOTO_C*%
X231698800Y-72796400D03*
X202950000Y-72150000D03*
%TO.N,/ESP32-C3-02/CS_SD*%
X237200000Y-87528400D03*
X235204000Y-88900000D03*
%TO.N,Net-(Q2-B)*%
X196857600Y-110292400D03*
X199950000Y-113300000D03*
%TO.N,/ESP32-C3-02/RTS*%
X181508400Y-97078800D03*
X199100000Y-102400000D03*
%TO.N,/+5V_USB*%
X175200000Y-118550000D03*
X174400000Y-118550000D03*
X171800000Y-119950000D03*
X164689600Y-102400000D03*
X177250000Y-115950000D03*
X168649200Y-101150800D03*
X172416348Y-101393358D03*
X172416348Y-102409358D03*
X172416348Y-100299358D03*
X166721600Y-102400000D03*
X177200000Y-114950000D03*
%TO.N,Net-(U1-PROG3)*%
X164847400Y-111047400D03*
X170992800Y-115163600D03*
%TO.N,Net-(U1-PROG1)*%
X163100000Y-111150000D03*
X170950000Y-116100000D03*
%TO.N,/USB_DP*%
X183550000Y-105918000D03*
%TO.N,/VBUS*%
X178258348Y-100377358D03*
X187125200Y-107724800D03*
X185150000Y-106800000D03*
X183600000Y-107950000D03*
X178258348Y-101393358D03*
X178258348Y-102409358D03*
%TO.N,/USB_DN*%
X187200000Y-105900000D03*
%TO.N,Net-(J1-CC2)*%
X192600000Y-108300000D03*
%TO.N,/ESP32-C3-02/DTR*%
X183438800Y-97350000D03*
X202350000Y-104750000D03*
%TO.N,Net-(U3-~{RST})*%
X187425000Y-98200000D03*
X182118000Y-101300000D03*
%TO.N,Net-(U3-~{RXT}{slash}GPIO.3)*%
X181200000Y-99300000D03*
X185724800Y-96012000D03*
%TD*%
%TO.N,/ESP32-C3-02/EN*%
D18*
X194747600Y-116250000D02*
X200600000Y-116250000D01*
X199850000Y-106550000D02*
X199850000Y-110700000D01*
D19*
X226850000Y-87450000D02*
X225550000Y-88750000D01*
D18*
X191922400Y-119075200D02*
X194747600Y-116250000D01*
X197600000Y-105400000D02*
X198700000Y-105400000D01*
X199850000Y-110700000D02*
X200609200Y-111459200D01*
X200609200Y-111459200D02*
X200609200Y-114147600D01*
D19*
X225550000Y-88750000D02*
X225550000Y-95700000D01*
X205379800Y-115870200D02*
X205300000Y-115950000D01*
D18*
X198700000Y-105400000D02*
X199850000Y-106550000D01*
D19*
X225550000Y-95700000D02*
X205379800Y-115870200D01*
%TO.N,/ESP32-C3-02/SDA*%
D20*
X224200000Y-75950000D02*
X224450000Y-75700000D01*
X190156200Y-74156200D02*
X190100000Y-74100000D01*
X224450000Y-75700000D02*
X224450000Y-75100000D01*
X190800000Y-74800000D02*
X190156200Y-74156200D01*
X222900000Y-75400000D02*
X223450000Y-75950000D01*
X224450000Y-75100000D02*
X224150000Y-74800000D01*
X223450000Y-75950000D02*
X224200000Y-75950000D01*
X224150000Y-74800000D02*
X190800000Y-74800000D01*
%TO.N,/ESP32-C3-02/GPIO8*%
D19*
X184100000Y-69398529D02*
X184100000Y-75900000D01*
X174142400Y-68376800D02*
X183078271Y-68376800D01*
X183078271Y-68376800D02*
X184100000Y-69398529D01*
X219000000Y-81350000D02*
X202500000Y-81350000D01*
%TO.N,/ESP32-C3-02/BOOT*%
D18*
X224650000Y-95050000D02*
X224650000Y-88500000D01*
X204000000Y-110400000D02*
X209300000Y-110400000D01*
X209300000Y-110400000D02*
X224650000Y-95050000D01*
X224650000Y-88500000D02*
X225350000Y-87800000D01*
%TO.N,/ESP32-C3-02/CS*%
D20*
X205000000Y-86550000D02*
X202400000Y-83950000D01*
X228466000Y-87750000D02*
X227266000Y-86550000D01*
X227266000Y-86550000D02*
X205000000Y-86550000D01*
%TO.N,/ESP32-C3-02/TX_RX*%
D18*
X180100000Y-96700000D02*
X194450000Y-82350000D01*
X180898800Y-98501200D02*
X180816737Y-98501200D01*
X180816737Y-98501200D02*
X180100000Y-97784463D01*
X180100000Y-97784463D02*
X180100000Y-96700000D01*
X194450000Y-82350000D02*
X229700000Y-82350000D01*
%TO.N,/ESP32-C3-02/RX_TX*%
X180746400Y-97098337D02*
X194694737Y-83150000D01*
X230550000Y-83150000D02*
X232100000Y-81600000D01*
X194694737Y-83150000D02*
X230550000Y-83150000D01*
X180746400Y-97688400D02*
X180746400Y-97098337D01*
%TO.N,/ESP32-C3-02/GPIO18*%
D19*
X175628000Y-78600000D02*
X168639000Y-71611000D01*
X222550000Y-78600000D02*
X175628000Y-78600000D01*
X224550000Y-80600000D02*
X222550000Y-78600000D01*
X231800000Y-80600000D02*
X224550000Y-80600000D01*
%TO.N,/ESP32-C3-02/GPIO19*%
X230400000Y-76150000D02*
X231700000Y-77450000D01*
X169468800Y-69682129D02*
X177058853Y-77272182D01*
X169468800Y-68376800D02*
X169468800Y-69682129D01*
X177058853Y-77272182D02*
X223627818Y-77272182D01*
X224750000Y-76150000D02*
X230400000Y-76150000D01*
X223627818Y-77272182D02*
X224750000Y-76150000D01*
%TO.N,/ESP32-C3-02/SCL*%
D20*
X191250000Y-74100000D02*
X190100000Y-72950000D01*
X230500000Y-74100000D02*
X191250000Y-74100000D01*
%TO.N,/ESP32-C3-02/PHOTO_C*%
D18*
X231698800Y-72796400D02*
X231696400Y-72796400D01*
X231696400Y-72796400D02*
X231050000Y-72150000D01*
X231050000Y-72150000D02*
X202950000Y-72150000D01*
%TO.N,/ESP32-C3-02/CS_SD*%
D20*
X235828400Y-88900000D02*
X235204000Y-88900000D01*
X235204000Y-88900000D02*
X235150000Y-88900000D01*
X237200000Y-87528400D02*
X235828400Y-88900000D01*
%TO.N,Net-(Q2-B)*%
D18*
X197792400Y-110292400D02*
X196857600Y-110292400D01*
X199950000Y-112450000D02*
X197792400Y-110292400D01*
X199950000Y-113300000D02*
X199950000Y-112450000D01*
X199950000Y-113300000D02*
X200000000Y-113300000D01*
%TO.N,/ESP32-C3-02/RTS*%
X181508400Y-97078800D02*
X184237200Y-94350000D01*
X184237200Y-94350000D02*
X191050000Y-94350000D01*
X191050000Y-94350000D02*
X199100000Y-102400000D01*
%TO.N,Net-(U1-PROG3)*%
X168950000Y-115150000D02*
X171000000Y-115150000D01*
X164847400Y-111047400D02*
X168950000Y-115150000D01*
%TO.N,Net-(U1-PROG1)*%
X168050000Y-116100000D02*
X170950000Y-116100000D01*
X163100000Y-111150000D02*
X168050000Y-116100000D01*
%TO.N,/USB_DP*%
D19*
X185653250Y-108653250D02*
X183550000Y-106550000D01*
X183550000Y-105918000D02*
X183550000Y-105900000D01*
X185653250Y-110332500D02*
X185653250Y-108653250D01*
X183550000Y-106550000D02*
X183550000Y-105918000D01*
%TO.N,Net-(J1-CC2)*%
D18*
X188673250Y-111029208D02*
X188673250Y-110605418D01*
X188009958Y-111692500D02*
X188673250Y-111029208D01*
X186053250Y-111502119D02*
X186243631Y-111692500D01*
X186053250Y-111042500D02*
X186053250Y-111502119D01*
X190978668Y-108300000D02*
X192600000Y-108300000D01*
X188673250Y-110605418D02*
X190978668Y-108300000D01*
X186243631Y-111692500D02*
X188009958Y-111692500D01*
%TO.N,/ESP32-C3-02/DTR*%
X199550000Y-104750000D02*
X202350000Y-104750000D01*
X190200000Y-95400000D02*
X199550000Y-104750000D01*
X183438800Y-97350000D02*
X185388800Y-95400000D01*
X185388800Y-95400000D02*
X190200000Y-95400000D01*
%TO.N,Net-(U3-~{RST})*%
X186788000Y-98200000D02*
X183688000Y-101300000D01*
X182118000Y-101300000D02*
X182100000Y-101300000D01*
X183688000Y-101300000D02*
X182118000Y-101300000D01*
X187425000Y-98200000D02*
X186788000Y-98200000D01*
%TO.N,Net-(U3-~{RXT}{slash}GPIO.3)*%
X185724800Y-97625200D02*
X183700000Y-99650000D01*
X185724800Y-96012000D02*
X185724800Y-97625200D01*
X181550000Y-99650000D02*
X181200000Y-99300000D01*
X183700000Y-99650000D02*
X181550000Y-99650000D01*
%TD*%
M02*
