%TF.GenerationSoftware,KiCad,Pcbnew,10.0.3*%
%TF.CreationDate,2026-06-17T12:40:10+05:30*%
%TF.ProjectId,IOT,494f542e-6b69-4636-9164-5f7063625858,rev?*%
%TF.SameCoordinates,Original*%
%TF.FileFunction,Paste,Top*%
%TF.FilePolarity,Positive*%
%FSLAX46Y46*%
G04 Gerber Fmt 4.6, Leading zero omitted, Abs format (unit mm)*
G04 Created by KiCad (PCBNEW 10.0.3) date 2026-06-17 12:40:10*
%MOMM*%
%LPD*%
G01*
G04 APERTURE LIST*
G04 Aperture macros list*
%AMRoundRect*
0 Rectangle with rounded corners*
0 $1 Rounding radius*
0 $2 $3 $4 $5 $6 $7 $8 $9 X,Y pos of 4 corners*
0 Add a 4 corners polygon primitive as box body*
4,1,4,$2,$3,$4,$5,$6,$7,$8,$9,$2,$3,0*
0 Add four circle primitives for the rounded corners*
1,1,$1+$1,$2,$3*
1,1,$1+$1,$4,$5*
1,1,$1+$1,$6,$7*
1,1,$1+$1,$8,$9*
0 Add four rect primitives between the rounded corners*
20,1,$1+$1,$2,$3,$4,$5,0*
20,1,$1+$1,$4,$5,$6,$7,0*
20,1,$1+$1,$6,$7,$8,$9,0*
20,1,$1+$1,$8,$9,$2,$3,0*%
G04 Aperture macros list end*
%ADD10RoundRect,0.250000X0.262500X0.450000X-0.262500X0.450000X-0.262500X-0.450000X0.262500X-0.450000X0*%
%ADD11R,1.500000X0.900000*%
%ADD12R,0.700000X0.700000*%
%ADD13RoundRect,0.250000X0.450000X-0.262500X0.450000X0.262500X-0.450000X0.262500X-0.450000X-0.262500X0*%
%ADD14RoundRect,0.150000X0.150000X-0.587500X0.150000X0.587500X-0.150000X0.587500X-0.150000X-0.587500X0*%
%ADD15RoundRect,0.250000X0.250000X0.475000X-0.250000X0.475000X-0.250000X-0.475000X0.250000X-0.475000X0*%
%ADD16R,0.950000X2.150000*%
%ADD17R,3.250000X2.150000*%
%ADD18RoundRect,0.250000X0.255000X0.255000X-0.255000X0.255000X-0.255000X-0.255000X0.255000X-0.255000X0*%
%ADD19RoundRect,0.062500X0.350000X0.062500X-0.350000X0.062500X-0.350000X-0.062500X0.350000X-0.062500X0*%
%ADD20RoundRect,0.062500X0.062500X0.350000X-0.062500X0.350000X-0.062500X-0.350000X0.062500X-0.350000X0*%
%ADD21R,1.800000X1.230000*%
%ADD22RoundRect,0.250000X0.475000X-0.250000X0.475000X0.250000X-0.475000X0.250000X-0.475000X-0.250000X0*%
%ADD23R,1.200000X1.200000*%
%ADD24RoundRect,0.250000X-0.250000X-0.475000X0.250000X-0.475000X0.250000X0.475000X-0.250000X0.475000X0*%
%ADD25RoundRect,0.250000X-0.262500X-0.450000X0.262500X-0.450000X0.262500X0.450000X-0.262500X0.450000X0*%
%ADD26RoundRect,0.150000X-0.150000X0.512500X-0.150000X-0.512500X0.150000X-0.512500X0.150000X0.512500X0*%
%ADD27R,0.300000X1.200000*%
%ADD28R,0.200000X1.000000*%
%ADD29RoundRect,0.250000X-0.450000X0.262500X-0.450000X-0.262500X0.450000X-0.262500X0.450000X0.262500X0*%
%ADD30R,0.540000X0.540000*%
%ADD31R,0.300000X0.300000*%
%ADD32R,0.300000X0.900000*%
%ADD33R,0.900000X0.300000*%
%ADD34RoundRect,0.250000X-0.475000X0.250000X-0.475000X-0.250000X0.475000X-0.250000X0.475000X0.250000X0*%
%ADD35RoundRect,0.100000X0.100000X-0.495000X0.100000X0.495000X-0.100000X0.495000X-0.100000X-0.495000X0*%
%ADD36R,1.230000X1.800000*%
%ADD37R,0.550000X0.570000*%
%ADD38RoundRect,0.162500X-0.650000X-0.162500X0.650000X-0.162500X0.650000X0.162500X-0.650000X0.162500X0*%
%ADD39RoundRect,0.147500X0.442500X1.257500X-0.442500X1.257500X-0.442500X-1.257500X0.442500X-1.257500X0*%
%ADD40R,1.100000X0.800000*%
%ADD41R,1.100000X1.000000*%
%ADD42R,1.000000X5.500000*%
%ADD43R,1.600000X3.000000*%
%ADD44R,1.000000X1.500000*%
%ADD45R,0.700000X1.500000*%
%ADD46R,1.500000X2.800000*%
%ADD47R,0.500000X0.350000*%
G04 APERTURE END LIST*
D10*
%TO.C,R26*%
X174699300Y-73082400D03*
X172874300Y-73082400D03*
%TD*%
D11*
%TO.C,U2*%
X216640000Y-72400000D03*
X216640000Y-73900000D03*
X216640000Y-75400000D03*
X216640000Y-76900000D03*
X216640000Y-78400000D03*
X216640000Y-79900000D03*
X216640000Y-81400000D03*
X216640000Y-82900000D03*
X216640000Y-84400000D03*
X234140000Y-84400000D03*
X234140000Y-82900000D03*
X234140000Y-81400000D03*
X234140000Y-79900000D03*
X234140000Y-78400000D03*
X234140000Y-76900000D03*
X234140000Y-75400000D03*
X234140000Y-73900000D03*
X234140000Y-72400000D03*
D12*
X225250000Y-77500000D03*
X226350000Y-77500000D03*
X227450000Y-77500000D03*
X225250000Y-78600000D03*
X226350000Y-78600000D03*
X227450000Y-78600000D03*
X225250000Y-79700000D03*
X226350000Y-79700000D03*
X227450000Y-79700000D03*
%TD*%
D13*
%TO.C,R8*%
X168500000Y-109662500D03*
X168500000Y-107837500D03*
%TD*%
D14*
%TO.C,Q2*%
X196857600Y-109068200D03*
X198757600Y-109068200D03*
X197807600Y-107193200D03*
%TD*%
D15*
%TO.C,C21*%
X178574300Y-77082400D03*
X176674300Y-77082400D03*
%TD*%
%TO.C,C18*%
X174774300Y-71082400D03*
X172874300Y-71082400D03*
%TD*%
D16*
%TO.C,VR1*%
X170166000Y-89006000D03*
X172466000Y-89006000D03*
X174766000Y-89006000D03*
D17*
X172466000Y-83206000D03*
%TD*%
D18*
%TO.C,U1*%
X174875000Y-116312500D03*
X174875000Y-115062500D03*
X173625000Y-116312500D03*
X173625000Y-115062500D03*
D19*
X176187500Y-116687500D03*
X176187500Y-116187500D03*
X176187500Y-115687500D03*
X176187500Y-115187500D03*
X176187500Y-114687500D03*
D20*
X175250000Y-113750000D03*
X174750000Y-113750000D03*
X174250000Y-113750000D03*
X173750000Y-113750000D03*
X173250000Y-113750000D03*
D19*
X172312500Y-114687500D03*
X172312500Y-115187500D03*
X172312500Y-115687500D03*
X172312500Y-116187500D03*
X172312500Y-116687500D03*
D20*
X173250000Y-117625000D03*
X173750000Y-117625000D03*
X174250000Y-117625000D03*
X174750000Y-117625000D03*
X175250000Y-117625000D03*
%TD*%
D21*
%TO.C,C4*%
X164130000Y-88750000D03*
X166750000Y-88750000D03*
%TD*%
D15*
%TO.C,C2*%
X172950000Y-95500000D03*
X171050000Y-95500000D03*
%TD*%
D22*
%TO.C,C15*%
X194977200Y-74515200D03*
X194977200Y-72615200D03*
%TD*%
D23*
%TO.C,D7*%
X183750000Y-92287500D03*
X183750000Y-90187500D03*
%TD*%
D24*
%TO.C,C11*%
X190800000Y-99500000D03*
X192700000Y-99500000D03*
%TD*%
D25*
%TO.C,R31*%
X196945100Y-111693200D03*
X198770100Y-111693200D03*
%TD*%
D21*
%TO.C,C3*%
X173310000Y-92500000D03*
X170690000Y-92500000D03*
%TD*%
D26*
%TO.C,U4*%
X186200000Y-103362500D03*
X185250000Y-103362500D03*
X184300000Y-103362500D03*
X184300000Y-105637500D03*
X185250000Y-105637500D03*
X186200000Y-105637500D03*
%TD*%
D27*
%TO.C,J1*%
X182503250Y-109082500D03*
X183003250Y-109082500D03*
X183503250Y-109082500D03*
X184003250Y-109082500D03*
X184503250Y-109082500D03*
X185003250Y-109082500D03*
X185503250Y-109082500D03*
X186003250Y-109082500D03*
X186503250Y-109082500D03*
X187003250Y-109082500D03*
X187503250Y-109082500D03*
X188003250Y-109082500D03*
D28*
X185253250Y-113662500D03*
X185253250Y-116762500D03*
%TD*%
D24*
%TO.C,C6*%
X173300000Y-119750000D03*
X175200000Y-119750000D03*
%TD*%
D10*
%TO.C,R30*%
X204162500Y-112000000D03*
X202337500Y-112000000D03*
%TD*%
D24*
%TO.C,C19*%
X196957600Y-114130700D03*
X198857600Y-114130700D03*
%TD*%
D13*
%TO.C,R5*%
X162500000Y-109662500D03*
X162500000Y-107837500D03*
%TD*%
D29*
%TO.C,R18*%
X227750000Y-89837500D03*
X227750000Y-91662500D03*
%TD*%
D30*
%TO.C,U3*%
X184300000Y-99900000D03*
X185200000Y-99900000D03*
X184300000Y-99000000D03*
X185200000Y-99000000D03*
D31*
X183500000Y-100700000D03*
D32*
X184000000Y-101000000D03*
X184500000Y-101000000D03*
X185000000Y-101000000D03*
X185500000Y-101000000D03*
D31*
X186000000Y-100700000D03*
D33*
X186300000Y-100200000D03*
X186300000Y-99700000D03*
X186300000Y-99200000D03*
X186300000Y-98700000D03*
D31*
X186000000Y-98200000D03*
D32*
X185500000Y-97900000D03*
X185000000Y-97900000D03*
X184500000Y-97900000D03*
X184000000Y-97900000D03*
D31*
X183500000Y-98200000D03*
D33*
X183200000Y-98700000D03*
X183200000Y-99200000D03*
X183200000Y-99700000D03*
X183200000Y-100200000D03*
%TD*%
D13*
%TO.C,R15*%
X185950000Y-94575000D03*
X185950000Y-92750000D03*
%TD*%
%TO.C,R6*%
X164500000Y-109662500D03*
X164500000Y-107837500D03*
%TD*%
D34*
%TO.C,C8*%
X214250000Y-72550000D03*
X214250000Y-74450000D03*
%TD*%
D10*
%TO.C,R21*%
X193139700Y-70815200D03*
X191314700Y-70815200D03*
%TD*%
D35*
%TO.C,U7*%
X176974300Y-74792400D03*
X177624300Y-74792400D03*
X178274300Y-74792400D03*
X178274300Y-72872400D03*
X176974300Y-72872400D03*
%TD*%
D25*
%TO.C,R25*%
X176711800Y-79082400D03*
X178536800Y-79082400D03*
%TD*%
D13*
%TO.C,R16*%
X212000000Y-81662500D03*
X212000000Y-79837500D03*
%TD*%
D24*
%TO.C,C5*%
X164490000Y-85500000D03*
X166390000Y-85500000D03*
%TD*%
D10*
%TO.C,R28*%
X174699300Y-75082400D03*
X172874300Y-75082400D03*
%TD*%
D13*
%TO.C,R32*%
X194157600Y-117955700D03*
X194157600Y-116130700D03*
%TD*%
%TO.C,R4*%
X191500000Y-115250000D03*
X191500000Y-113425000D03*
%TD*%
D21*
%TO.C,C9*%
X190690000Y-102750000D03*
X193310000Y-102750000D03*
%TD*%
D10*
%TO.C,R22*%
X181986800Y-74832400D03*
X180161800Y-74832400D03*
%TD*%
D15*
%TO.C,C17*%
X182024300Y-72832400D03*
X180124300Y-72832400D03*
%TD*%
D24*
%TO.C,C20*%
X201907600Y-114130700D03*
X203807600Y-114130700D03*
%TD*%
D36*
%TO.C,C7*%
X211250000Y-73800000D03*
X211250000Y-76420000D03*
%TD*%
D25*
%TO.C,R13*%
X180287500Y-103250000D03*
X182112500Y-103250000D03*
%TD*%
D13*
%TO.C,R24*%
X205398800Y-75072100D03*
X205398800Y-73247100D03*
%TD*%
%TO.C,R7*%
X170500000Y-109662500D03*
X170500000Y-107837500D03*
%TD*%
D10*
%TO.C,R10*%
X185412500Y-84750000D03*
X183587500Y-84750000D03*
%TD*%
D37*
%TO.C,S1*%
X199407600Y-118720700D03*
X196857600Y-118720700D03*
X199407600Y-117560700D03*
X196857600Y-117560700D03*
%TD*%
D24*
%TO.C,C13*%
X220550000Y-91500000D03*
X222450000Y-91500000D03*
%TD*%
D10*
%TO.C,R27*%
X178536800Y-70832400D03*
X176711800Y-70832400D03*
%TD*%
D24*
%TO.C,C22*%
X172811800Y-79087400D03*
X174711800Y-79087400D03*
%TD*%
D34*
%TO.C,C14*%
X197337500Y-85895000D03*
X197337500Y-87795000D03*
%TD*%
D10*
%TO.C,R29*%
X174699300Y-77082400D03*
X172874300Y-77082400D03*
%TD*%
D38*
%TO.C,U5*%
X199750000Y-83440000D03*
X199750000Y-84710000D03*
X199750000Y-85980000D03*
X199750000Y-87250000D03*
X206925000Y-87250000D03*
X206925000Y-85980000D03*
X206925000Y-84710000D03*
X206925000Y-83440000D03*
%TD*%
D39*
%TO.C,F1*%
X176705348Y-101419358D03*
X173735348Y-101419358D03*
%TD*%
D23*
%TO.C,D8*%
X186000000Y-88650000D03*
X186000000Y-90750000D03*
%TD*%
D37*
%TO.C,S2*%
X204182600Y-118710700D03*
X201632600Y-118710700D03*
X204182600Y-117550700D03*
X201632600Y-117550700D03*
%TD*%
D29*
%TO.C,R17*%
X214250000Y-79925000D03*
X214250000Y-81750000D03*
%TD*%
D10*
%TO.C,R19*%
X208075000Y-89250000D03*
X206250000Y-89250000D03*
%TD*%
D22*
%TO.C,C1*%
X190000000Y-107200000D03*
X190000000Y-105300000D03*
%TD*%
D40*
%TO.C,Q1*%
X199971800Y-73465600D03*
X199971800Y-74565600D03*
D41*
X203481800Y-74015600D03*
%TD*%
D10*
%TO.C,R23*%
X193139700Y-68815200D03*
X191314700Y-68815200D03*
%TD*%
D13*
%TO.C,R14*%
X183750000Y-96162500D03*
X183750000Y-94337500D03*
%TD*%
%TO.C,R2*%
X174500000Y-109662500D03*
X174500000Y-107837500D03*
%TD*%
D14*
%TO.C,Q3*%
X201607600Y-109005700D03*
X203507600Y-109005700D03*
X202557600Y-107130700D03*
%TD*%
D21*
%TO.C,C12*%
X217810000Y-90750000D03*
X215190000Y-90750000D03*
%TD*%
D13*
%TO.C,R12*%
X188000000Y-94575000D03*
X188000000Y-92750000D03*
%TD*%
D22*
%TO.C,C10*%
X181000000Y-92250000D03*
X181000000Y-90350000D03*
%TD*%
D13*
%TO.C,R3*%
X191500000Y-111500000D03*
X191500000Y-109675000D03*
%TD*%
D23*
%TO.C,CHARGED*%
X163500000Y-104500000D03*
X163500000Y-102400000D03*
%TD*%
D42*
%TO.C,J2*%
X165000000Y-117000000D03*
X167000000Y-117000000D03*
D43*
X162600000Y-114750000D03*
X169400000Y-114750000D03*
%TD*%
D10*
%TO.C,R20*%
X204500000Y-89250000D03*
X202675000Y-89250000D03*
%TD*%
D15*
%TO.C,C16*%
X178574300Y-68832400D03*
X176674300Y-68832400D03*
%TD*%
D44*
%TO.C,J3*%
X227875000Y-93700000D03*
X225375000Y-93700000D03*
X222875000Y-93700000D03*
X220375000Y-93700000D03*
X217875000Y-93700000D03*
X215375000Y-93700000D03*
X212950000Y-93700000D03*
X211250000Y-93700000D03*
X230375000Y-93700000D03*
D45*
X209950000Y-93700000D03*
D46*
X207350000Y-95500000D03*
X232450000Y-95500000D03*
X234650000Y-117000000D03*
X207350000Y-117000000D03*
D45*
X208750000Y-93700000D03*
%TD*%
D13*
%TO.C,R9*%
X172500000Y-109662500D03*
X172500000Y-107837500D03*
%TD*%
D23*
%TO.C,CHRG_PWR_OK*%
X165750000Y-102400000D03*
X165750000Y-104500000D03*
%TD*%
D25*
%TO.C,R11*%
X180337500Y-105250000D03*
X182162500Y-105250000D03*
%TD*%
D13*
%TO.C,R1*%
X166475000Y-109707500D03*
X166475000Y-107882500D03*
%TD*%
D47*
%TO.C,U6*%
X191202200Y-74540200D03*
X191202200Y-73890200D03*
X191202200Y-73240200D03*
X191202200Y-72590200D03*
X193252200Y-72590200D03*
X193252200Y-73240200D03*
X193252200Y-73890200D03*
X193252200Y-74540200D03*
%TD*%
D23*
%TO.C,CHARGING*%
X167750000Y-102450000D03*
X167750000Y-104550000D03*
%TD*%
%TO.C,D4*%
X179400000Y-85000000D03*
X181500000Y-85000000D03*
%TD*%
M02*
